<?xml version="1.0" encoding="utf-8"?>
<!-- Generator: Adobe Illustrator 19.2.1, SVG Export Plug-In . SVG Version: 6.00 Build 0)  -->
<svg version="1.1" id="Layer_1" xmlns="http://www.w3.org/2000/svg" xmlns:xlink="http://www.w3.org/1999/xlink" x="0px" y="0px"
	 viewBox="0 0 50 43.1" style="enable-background:new 0 0 50 43.1;" xml:space="preserve">
<style type="text/css">
	.st0{fill:#070808;}
	.st1{fill:#FFFFFF;}
	.st2{fill:none;}
	.st3{fill:#457BBC;}
	.st4{fill:#FCE77F;}
	.st5{fill:#FCD432;}
	.st6{fill:#DA2E81;}
	.st7{fill:#C9D3D2;}
	.st8{fill:#AFB8B8;}
	.st9{fill:#E27CB2;}
	.st10{fill:#F47842;}
	.st11{fill:#F9A579;}
</style>
<circle class="st0" cx="34" cy="7.1" r="7.1"/>
<g>
	<rect x="33.1" y="2.6" class="st1" width="1.8" height="9"/>
	<rect x="29.4" y="6.2" class="st1" width="9" height="1.8"/>
</g>
<path class="st2" d="M21,33.7"/>
<path class="st2" d="M50,17.1"/>
<path class="st3" d="M14.7,27.2"/>
<polygon class="st4" points="21.4,6.3 42.6,43.1 0.1,43.1 "/>
<path class="st3" d="M11.3,27.2"/>
<polygon class="st5" points="21.4,6.3 21.4,43.1 42.6,43.1 "/>
<g>
	<path class="st2" d="M15.7,41.3"/>
	<path class="st6" d="M21.4,13.6c0,0-5.2,7.6-5.2,17.1c0,2.1,0.1,4.1,0.3,6h9.7c0.2-1.9,0.3-3.9,0.3-6
		C26.6,21.3,21.4,13.6,21.4,13.6z M21.4,27.2c-1,0-1.7-0.7-1.7-1.7c0-1,0.7-1.7,1.7-1.7"/>
	<path class="st7" d="M26.4,34c1,0.5,1.9,2.6,1.9,5.2c0,1.1-0.2,2.2-0.4,3h-0.1c-0.1-2.5-0.7-4.6-1.6-5.6C26.3,35.8,26.4,35,26.4,34
		z"/>
	<path class="st7" d="M16.3,34c-1,0.5-1.9,2.6-1.9,5.2c0,1.1,0.2,2.2,0.4,3h0.1c0.1-2.5,0.7-4.6,1.6-5.6C16.4,35.8,16.3,35,16.3,34z
		"/>
	<path class="st8" d="M16.3,34.1c-0.3,0.6-0.6,1.6-0.6,2.8c0,0.4,0,0.7,0.1,1c0.2-0.5,0.5-1,0.7-1.3C16.4,35.8,16.3,35,16.3,34.1z"
		/>
	<path class="st8" d="M26.4,34.1c0.3,0.6,0.6,1.6,0.6,2.9c0,0.4,0,0.7-0.1,1c-0.2-0.5-0.5-1-0.7-1.3C26.3,35.9,26.4,35,26.4,34.1z"
		/>
	<path class="st9" d="M21.4,23.7V13.6c0,0-5.2,7.6-5.2,17.1c0,2.1,0.1,4.1,0.3,6h4.9v-9.5"/>
	<path class="st10" d="M21.4,41.5c0,0-2.6-1.2-2.6-2.6v-1.7h0c0.3,1.2,1.3,2,2.5,2c1.3,0,2.3-0.9,2.5-2h0l0,1.7
		C23.9,40.4,21.4,41.5,21.4,41.5z"/>
	<path class="st11" d="M21.4,39.3c-1.3,0-2.3-0.9-2.5-2h0V39c0,1.4,2.6,2.6,2.6,2.6S21.4,39.3,21.4,39.3z"/>
</g>
<g>
	<path class="st1" d="M22.6,32.7c0,0.3-0.1,0.7-0.4,0.9c-0.3,0.3-0.6,0.3-0.9,0.3c-0.4,0-0.7-0.1-1-0.3C20.2,33.3,20,33,20,32.7
		c0-0.4,0.1-0.7,0.4-1c0.3-0.3,0.6-0.4,0.9-0.4c0.4,0,0.7,0.1,1,0.4C22.6,32,22.6,32.3,22.6,32.7z M21.1,29.2l-0.2-0.5
		c-0.1-0.4-0.3-1.3-0.5-2.9c-0.2-1.5-0.3-2.7-0.3-3.8c0-2,0.4-3,1.2-3c0.8,0,1.2,1,1.2,3c0,1.7-0.2,3.3-0.5,5.1l-0.3,1.6l-0.2,0.6
		c0,0.2-0.1,0.3-0.3,0.3C21.3,29.5,21.2,29.4,21.1,29.2z"/>
</g>
</svg>
