<?xml version="1.0" encoding="utf-8"?>
<!-- Generator: Adobe Illustrator 19.0.0, SVG Export Plug-In . SVG Version: 6.00 Build 0)  -->
<svg version="1.1" id="Layer_1" xmlns="http://www.w3.org/2000/svg" xmlns:xlink="http://www.w3.org/1999/xlink" x="0px" y="0px"
	 viewBox="-185 1350 551 258" style="enable-background:new -185 1350 551 258;" xml:space="preserve">
<style type="text/css">
	.st0{fill:#FFFFFF;stroke:#5AAAFA;stroke-miterlimit:10;}
	.st1{fill:#1CB3A0;}
	.st2{fill:#975AD1;}
	.st3{fill:#FC42A0;}
	.st4{fill:none;stroke:#5AAAFA;stroke-width:2;stroke-miterlimit:10;}
	.st5{fill:#5AAAFA;}
	.st6{fill:#2E3737;}
	.st7{fill:#586565;}
	.st8{fill:#FCE77F;}
	.st9{fill:#FCD432;}
	.st10{fill:#030506;}
	.st11{fill:#3D4747;}
	.st12{fill:#64BC46;}
	.st13{fill:#FC5255;}
	.st14{fill:none;}
	.st15{opacity:0.77;fill:#9CDAF0;enable-background:new    ;}
	.st16{opacity:0.77;fill:#201F1F;enable-background:new    ;}
	.st17{fill:#201F1F;}
	.st18{fill:#F4CAB1;}
	.st19{opacity:0.5;fill:#AC5C51;enable-background:new    ;}
	.st20{fill:#FFFFFF;}
	.st21{fill:#AC5C51;}
	.st22{fill:#9CDAF0;}
	.st23{font-family:'Arial'; font-weight: bold;}
	.st24{font-size:12px;}
	.st25{opacity:0.35;}
	.st26{fill:#EEC02B;}
	.st27{fill:#E8A723;}
	.st28{fill:#3EB890;}
	.st29{fill:#E01765;}
	.st30{fill:#472A49;}
	.st31{fill:#CC2027;}
	.st32{fill:#70CADB;}
	.st33{fill:#1A937D;}
	.st34{fill:#65863A;}
	.st35{fill:url(#SVGID_1_);}
	.st36{fill:url(#SVGID_2_);}
	.st37{fill:#0064FF;}
	.st38{fill:url(#SVGID_3_);}
	.st39{fill:url(#SVGID_4_);}
	.st40{fill:url(#SVGID_5_);}
	.st41{fill:url(#SVGID_6_);}
	.st42{fill:url(#SVGID_7_);}
	.st43{fill:url(#SVGID_8_);}
</style>
<title>background</title>
<title>Layer 1</title>
<g id="svg_1">
	<circle id="svg_2" class="st0" cx="134.4" cy="1436.5" r="26.5"/>
</g>
<rect id="svg_3" x="-75" y="1350" class="st1" width="83.5" height="4.5"/>
<rect id="svg_4" x="14.7" y="1350" class="st2" width="83.5" height="4.5"/>
<rect id="svg_5" x="104.3" y="1350" class="st3" width="83.5" height="4.5"/>
<circle id="svg_6" class="st0" cx="49.4" cy="1436.5" r="26.5"/>
<g id="svg_8">
	<g id="svg_9">
		<line id="svg_10" class="st4" x1="9.9" y1="1436.5" x2="-0.4" y2="1436.5"/>
		<g id="svg_11">
			<polygon id="svg_12" class="st5" points="8.4,1431.5 17.1,1436.5 8.4,1441.4 			"/>
		</g>
	</g>
</g>
<g id="svg_13">
	<g id="svg_14">
		<line id="svg_15" class="st4" x1="94.4" y1="1436.5" x2="84.1" y2="1436.5"/>
		<g id="svg_16">
			<polygon id="svg_17" class="st5" points="92.9,1431.5 101.6,1436.5 92.9,1441.4 			"/>
		</g>
	</g>
</g>
<circle id="svg_83" class="st0" cx="235.8" cy="1552.4" r="26.5"/>
<path id="svg_100" class="st6" d="M238.8,1563.3l-6.8,0.5c-0.6,0-1.1-0.4-1.2-1l0,0c0-0.6,0.4-1.1,1-1.2l6.8-0.5
	c0.6,0,1.1,0.4,1.2,1l0,0C239.9,1562.8,239.4,1563.3,238.8,1563.3z"/>
<path id="svg_101" class="st6" d="M238.8,1566.6l-6.8,0.5c-0.6,0-1.1-0.4-1.2-1l0,0c0-0.6,0.4-1.1,1-1.2l6.8-0.4
	c0.6,0,1.1,0.4,1.2,1l0,0C239.9,1566.1,239.4,1566.6,238.8,1566.6L238.8,1566.6z"/>
<g id="svg_102">
	<path id="svg_103" class="st7" d="M231.9,1568.2h-0.1c0.2,1.9,1.8,3.4,3.6,3.4c2,0,3.6-1.7,3.6-3.8c0,0,0,0,0-0.1L231.9,1568.2
		L231.9,1568.2z"/>
</g>
<g id="svg_104">
	<path id="svg_105" class="st8" d="M246.1,1545.3c0-5.9-4.8-10.8-10.8-10.8s-10.8,4.8-10.8,10.8c0,2.8,1,5.3,2.7,7.1
		c1.7,2.1,2.5,2.8,2.5,6.3v0.3c0,0.5,0.4,0.9,0.9,0.9h9.2c0.5,0,0.9-0.4,0.9-0.9v-0.2c0-3.7,0.9-4.3,2.8-6.7l0,0
		C245.2,1550.3,246.1,1547.9,246.1,1545.3L246.1,1545.3z"/>
	<path id="svg_106" class="st8" d="M243.7,1552.2l0.1-0.2C243.8,1552,243.7,1552.1,243.7,1552.2L243.7,1552.2z"/>
</g>
<path id="svg_107" class="st9" d="M246.1,1545.3c0-5.9-4.8-10.8-10.8-10.8v25.4h4.6c0.5,0,0.9-0.4,0.9-0.9v-0.2
	c0-3.7,0.9-4.3,2.8-6.7l0,0C245.2,1550.3,246.1,1547.9,246.1,1545.3z"/>
<path id="svg_108" class="st10" d="M239.9,1565.6v-0.4c0-0.5-0.5-0.9-1-0.9l-3.5,0.3v2.3l3.7-0.3
	C239.5,1566.6,239.9,1566.1,239.9,1565.6L239.9,1565.6z"/>
<path id="svg_109" class="st10" d="M239.9,1562.3v-0.3c0-0.5-0.5-0.9-1-0.9l-3.5,0.3v2.2l3.7-0.3
	C239.5,1563.3,239.9,1562.8,239.9,1562.3z"/>
<path id="svg_110" class="st11" d="M239,1567.7l-3.6,0.3v3.6C237.4,1571.6,239,1569.9,239,1567.7C239,1567.8,239,1567.8,239,1567.7
	L239,1567.7z"/>
<circle id="svg_111" class="st2" cx="235.4" cy="1545.5" r="6.7"/>
<path id="svg_112" class="st3" d="M235.4,1538.8v13.4c3.7,0,6.7-3,6.7-6.7C242,1541.8,239.1,1538.8,235.4,1538.8z"/>
<path id="svg_113" class="st12" d="M240.5,1549.8c1.3-1.6,1.8-3.6,1.5-5.5l-6.6,1.2l-4.3,5.1C233.9,1553,238.1,1552.6,240.5,1549.8z
	"/>
<rect id="svg_114" x="193.3" y="1350" class="st3" width="83.5" height="4.5"/>
<rect id="svg_121" x="192.3" y="1350" class="st13" width="83.5" height="4.5"/>
<g id="svg_123">
	<polyline id="svg_124" class="st4" points="235,1510.8 235.4,1391.9 -36.1,1391.9 -36.4,1404.9 	"/>
	<g id="svg_125">
		<polygon id="svg_126" class="st5" points="240,1509.3 235,1518 230,1509.3 		"/>
	</g>
</g>
<g id="svg_128">
	<polyline id="svg_129" class="st4" points="235,1510.8 235,1391.9 50.3,1391.9 50.3,1404.9 	"/>
	<g id="svg_130">
		<polygon id="svg_131" class="st5" points="240,1509.3 235,1518 230,1509.3 		"/>
	</g>
</g>
<g id="svg_132">
	<g id="svg_133">
		<polyline id="svg_134" class="st4" points="-136.2,1406 -136.2,1391.9 135.3,1391.9 135.3,1404.9 		"/>
		<g id="svg_135">
			<polygon id="svg_136" class="st5" points="240,1509.3 235,1518 230,1509.3 			"/>
			<g transform="matrix(1, 0, 0, 1, -371, -109.300003)">
				<polygon id="polygon-2" class="st5" points="240,1511.3 235,1520 230,1511.3 				"/>
			</g>
		</g>
	</g>
</g>
<g>
	<circle id="svg_137" class="st0" cx="-34.3" cy="1436.9" r="26.5"/>
	<line id="svg_138" class="st14" x1="-44.2" y1="1419.2" x2="-44.2" y2="1419.7"/>
	<path id="svg_145" class="st15" d="M-22.5,1451c0,2.3-5.1,4.1-11.5,4.1s-11.5-1.8-11.5-4.1s5.1-4,11.5-4S-22.5,1448.8-22.5,1451z"
		/>
	<path id="svg_147" class="st16" d="M-33.1,1451.7c-0.3,0.2-0.6,0.5-0.7,0.9c-0.1,0.1-0.1,0.3-0.1,0.5v0.3v0.3v0.5v1
		c1.6,0,0.2,0,2.1-0.1v-0.1v-0.2v-1.1v-0.3c0-0.2,0-0.2,0.1-0.5c0.1-0.3,0-0.4,0.2-0.6c0.1-0.1,0.1-0.1,0.1-0.2L-33.1,1451.7
		L-33.1,1451.7z"/>
	<path id="svg_148" class="st16" d="M-27.9,1450.5L-27.9,1450.5c-0.1-0.2-0.4-0.2-0.8-0.2c-1.2,0-2.2,0.6-2.5,1.4h0.2l-0.2,0.4h-0.1
		v0.1l0,0v0.6v0.4v1.7v0.1l1.9-0.2v-2c0-0.1,0-0.1,0-0.2c0-0.2,0.1-0.4,0.1-0.5c0.1-0.2,0.2-0.4,0.4-0.6c0.2-0.2,0.4-0.3,0.7-0.5
		C-28,1450.9-27.8,1450.7-27.9,1450.5z"/>
	<path id="svg_150" class="st16" d="M-34.5,1455.1L-34.5,1455.1c0.1,0,0.3,0,0.4,0c0.1,0,0.1,0,0.2,0l0,0c-0.1,0-0.1,0-0.2,0
		C-34.3,1455.1-34.4,1455.1-34.5,1455.1z"/>
	<path id="svg_153" class="st16" d="M-37.3,1455c0.2,0,0.4,0,0.6,0.1l0,0C-36.9,1455-37.1,1455-37.3,1455L-37.3,1455z"/>
	<path id="svg_154" class="st16" d="M-34.5,1453.6v-0.3v-0.3c0-0.2-0.1-0.3-0.1-0.5c-0.2-0.7-0.8-1.1-1.5-1.3v0.7h-1
		c0.2,0.1,0,0,0.3,0.3c0.2,0.2,0.1,0.3,0.2,0.6c0.1,0.3,0,0.3,0.1,0.5v0.3v1.4c0.7,0.1,1.4,0.1,2.1,0.1v-1L-34.5,1453.6
		C-34.4,1453.6-34.5,1453.6-34.5,1453.6z"/>
	<path id="svg_155" class="st16" d="M-37.3,1455L-37.3,1455v-1.8v-0.4v-0.6l0,0c0-0.2-0.1-0.3-0.1-0.5c-0.2-0.8-1.3-1.5-2.6-1.5
		c-0.4,0-0.7,0-0.8,0.2l0,0c-0.1,0.2,0.1,0.4,0.3,0.5c0.3,0.2,0.5,0.3,0.7,0.5s0.3,0.4,0.4,0.6c0,0.1,0.1,0.3,0.1,0.5
		c0,0.1,0,0.1,0,0.2v1.9"/>
	<path id="svg_156" class="st17" d="M-20.6,1434.8c2.5,0,4.8,0.3,6.9,0.7v-0.2c-2-0.4-4.2-0.7-6.6-0.7c-0.8,0-1.6,0-2.4,0.1
		c0.3-1.1,0.5-2.3,0.4-3.8c0-2.5-0.8-4.5-2.3-6c0.8-2.1-0.3-4.7-0.3-4.7s-2-0.2-5,1.9c-1.4-0.4-2.9-0.5-4.5-0.5
		c-1.7,0-3.3,0.2-4.9,0.7l0,0c-2.5-2-5.2-2-5.2-2s-1.2,3-0.2,5.1l0,0c-1.8,1.9-2.7,4.5-1.8,7.9c0.2,0.6,0.3,1.2,0.5,1.7
		c-0.7,0-1.4-0.1-2.1-0.1c-2.4,0-4.6,0.2-6.6,0.6v0.2c2-0.5,4.4-0.7,6.9-0.7c0.6,0,1.3,0,1.9,0.1c0.1,0.3,0.3,0.6,0.4,0.9
		c-0.8,0-1.7,0-2.6,0.1c-2.4,0.1-4.6,0.5-6.5,1v0.2c2-0.6,4.3-1,6.8-1.1c0.8,0,1.6-0.1,2.3-0.1c1.6,2.7,4.1,3.8,7.9,4.1
		c-0.9,0.5-1.5,1.4-1.6,2.4c-4.5,1.8-4.5-2.4-7-3.1c-0.2-0.1-0.3-0.1-0.5-0.1c-0.5-0.1-1,0-1.1,0.2l0,0v0.1c0,0.1,0,0.1,0.1,0.2
		c0.1,0.2,0.4,0.4,0.8,0.5c0.3,0.2,0.7,0.5,0.9,0.6c1.5,1.7,1.7,4.8,6.8,3.8v1.6v2.1c0,0.1,0,0.1,0,0.2c0,0.2-0.1,0.4-0.1,0.5
		c-0.1,0.2-0.2,0.4-0.4,0.6c-0.2,0.2-0.4,0.3-0.7,0.5c-0.2,0.1-0.4,0.3-0.3,0.5l0,0c0.1,0.2,0.3,0.2,0.8,0.2c1.3,0,2.3-0.6,2.6-1.5
		c0.1-0.1,0.1-0.3,0.1-0.5l0,0v-0.6v-0.4v-1.7v-2.1c0.1-0.8,0.5-1.4,0.6-1.3v1.3v3.5v2.1v0.3c0,0.2,0,0.2-0.1,0.5
		c-0.1,0.3,0,0.4-0.2,0.6c-0.3,0.3,0,0.1-0.4,0.3c-0.2,0.1-0.2,0.3-0.2,0.5c0.1,0.2,0.2,0.3,0.7,0.3c1.1-0.2,1.9-0.6,2.2-1.5
		c0.1-0.1,0.1-0.3,0.1-0.5v-0.3v-0.3v-0.5v-1.6v-5c0-0.2,0.1-0.3,0.3-0.3c0.1,0,0.3,0.1,0.3,0.3v5v1.6v0.5v0.3v0.3
		c0,0.2,0,0.3,0.1,0.5c0.2,0.8,1.1,1.3,2.2,1.5c0.4,0.1,0.6-0.1,0.7-0.3c0-0.2,0-0.4-0.2-0.5c-0.4-0.2-0.1,0-0.4-0.3
		c-0.2-0.2-0.1-0.4-0.2-0.6c-0.1-0.3,0-0.3-0.1-0.5v-0.3v-2.1v-3.5v-1.3c0.1-0.1,0.5,0.4,0.6,1.3v2.1v1.7v0.4v0.6l0,0
		c0,0.2,0,0.3,0.1,0.5c0.2,0.8,1.3,1.5,2.6,1.5c0.4,0,0.7,0,0.8-0.2l0,0c0.1-0.2-0.1-0.4-0.3-0.5c-0.3-0.2-0.5-0.3-0.7-0.5
		c-0.2-0.2-0.3-0.4-0.4-0.6c0-0.1-0.1-0.3-0.1-0.5c0-0.1,0-0.1,0-0.2v-2.1v-3.4c0-1.1-0.7-2.3-1.7-2.8c3.7-0.2,6.5-1.3,7.9-4.1
		c0.8,0,1.6,0,2.5,0.1c2.5,0.1,4.8,0.5,6.8,1.1v-0.2c-1.9-0.5-4.1-0.9-6.5-1c-0.9-0.1-1.8-0.1-2.7-0.1c0.1-0.3,0.2-0.6,0.3-0.9
		C-22,1434.8-21.3,1434.8-20.6,1434.8L-20.6,1434.8z"/>
	<path id="svg_159" class="st18" d="M-25.1,1433.8c0-2.5-1.8-4.5-4.3-4.5l0,0c-2.7,0-3.1,0.2-4.9,0.2s-2.2-0.2-4.7-0.2
		c-0.1,0-0.2,0-0.4,0c-2.4,0-4.3,1.9-4.3,4.4c0,2,1.2,3.8,3,4.5l0,0c0,0.2,3.6,1.6,11.3,0.6c0.3,0,0.7-0.1,1.1-0.2l0,0l0,0
		C-26.4,1437.9-25.1,1435.9-25.1,1433.8z"/>
	<path id="svg_160" class="st19" d="M-39.3,1429.8c0.1,0,0.3,0,0.4,0c2.5,0,2.9,0.2,4.7,0.2s2.2-0.2,4.9-0.2l0,0
		c2.4,0,4.1,1.9,4.3,4.2c0-0.1,0-0.1,0-0.2c0-2.5-1.8-4.5-4.3-4.5l0,0c-2.7,0-3.1,0.2-4.9,0.2s-2.2-0.2-4.7-0.2c-0.1,0-0.2,0-0.4,0
		c-2.4,0-4.3,1.9-4.3,4.4c0,0.1,0,0.1,0,0.2C-43.5,1431.6-41.7,1429.8-39.3,1429.8z"/>
	<ellipse id="svg_161" class="st20" cx="-39.3" cy="1433.7" rx="1.9" ry="2.8"/>
	<ellipse id="svg_162" class="st21" cx="-39.2" cy="1433.7" rx="1.3" ry="1.8"/>
	<circle id="svg_163" class="st20" cx="-39.7" cy="1433" r="0.4"/>
	<ellipse id="svg_164" class="st20" cx="-29.1" cy="1433.7" rx="1.9" ry="2.8"/>
	<ellipse id="svg_165" class="st21" cx="-29.3" cy="1433.8" rx="1.3" ry="1.8"/>
	<circle id="svg_166" class="st20" cx="-29.7" cy="1433" r="0.3"/>
	<circle id="svg_167" class="st21" cx="-34.4" cy="1436.2" r="0.5"/>
	<path id="svg_168" class="st21" d="M-33.4,1437.2c-0.1,0-0.1,0.1-0.1,0.2c-0.1,0.3-0.4,0.5-0.8,0.5c-0.4,0-0.7-0.2-0.8-0.5
		c0-0.1-0.1-0.2-0.1-0.2s-0.1,0.1-0.1,0.2c0.1,0.4,0.5,0.8,1.1,0.8c0.5,0,1-0.3,1.1-0.8C-33.3,1437.3-33.4,1437.2-33.4,1437.2z"/>
	<path id="svg_169" class="st15" d="M-46.9,1441.5c0,0.2-0.2,0.3-0.3,0.3c-0.2,0-0.3-0.2-0.3-0.3s0.3-1.4,0.3-1.4
		S-46.9,1441.3-46.9,1441.5z"/>
	<ellipse id="svg_170" class="st22" cx="-45.9" cy="1439.8" rx="0.2" ry="0.2"/>
	<ellipse id="svg_171" class="st22" cx="-45.2" cy="1440.3" rx="0.2" ry="0.2"/>
	
		<ellipse id="svg_172" transform="matrix(-0.3856 -0.9227 0.9227 -0.3856 -1391.5599 1955.7964)" class="st22" cx="-44.6" cy="1441.2" rx="0.3" ry="0.2"/>
	
		<ellipse id="svg_173" transform="matrix(-0.6562 -0.7546 0.7546 -0.6562 -1160.6301 2355.4253)" class="st22" cx="-43.7" cy="1442.1" rx="0.3" ry="0.2"/>
	
		<ellipse id="svg_174" transform="matrix(-0.866 -0.5 0.5 -0.866 -801.4839 2670.8525)" class="st22" cx="-42.9" cy="1442.8" rx="0.3" ry="0.2"/>
	
		<ellipse id="svg_175" transform="matrix(-0.9912 -0.1325 0.1325 -0.9912 -274.6423 2868.1538)" class="st22" cx="-41.9" cy="1443.2" rx="0.3" ry="0.2"/>
	
		<ellipse id="svg_176" transform="matrix(-6.732094e-02 -0.9977 0.9977 -6.732094e-02 -1483.2194 1500.017)" class="st22" cx="-40.5" cy="1443.3" rx="0.2" ry="0.3"/>
	<path id="svg_177" class="st22" d="M-39.2,1442.9c0,0.1,0,0.2-0.2,0.3c-0.2,0.1-0.3-0.1-0.3-0.2s0.1-0.2,0.3-0.3
		C-39.2,1442.7-39.2,1442.8-39.2,1442.9z"/>
	<path id="svg_178" d="M-37.5,1440c-0.4,0.2-0.7,0.5-0.9,0.8c0.3-0.1,8.3-1.8,9.1,1.9c-0.1-1.1-0.7-2.1-1.7-2.7
		C-34.2,1440.3-37.5,1440-37.5,1440z"/>
	<path id="svg_179" d="M-39.1,1442.4c0,1.2,0,2.2,0,2.2s-0.1,0-0.2,0C-39.3,1444.6-39.5,1443.6-39.1,1442.4z"/>
	<line id="svg_182" class="st14" x1="-31.4" y1="1452" x2="-32.6" y2="1451.6"/>
	<line id="svg_183" class="st14" x1="-31.3" y1="1455" x2="-30" y2="1455"/>
	<line id="svg_184" class="st14" x1="-30.9" y1="1455" x2="-31.3" y2="1455"/>
	<line id="svg_185" class="st14" x1="-30.6" y1="1454.9" x2="-30.9" y2="1455"/>
	<line id="svg_186" class="st14" x1="-30.9" y1="1455" x2="-31.2" y2="1455"/>
	<line id="svg_188" class="st14" x1="-29.4" y1="1454.8" x2="-29.8" y2="1454.8"/>
	<line id="svg_189" class="st14" x1="-30.1" y1="1454.9" x2="-29.8" y2="1454.8"/>
	<line id="svg_190" class="st14" x1="-30.5" y1="1454.9" x2="-30.1" y2="1454.9"/>
	<line id="svg_191" class="st14" x1="-30.9" y1="1455" x2="-30.6" y2="1454.9"/>
	<line id="svg_192" class="st14" x1="-30.5" y1="1454.9" x2="-30.6" y2="1454.9"/>
	<line id="svg_193" class="st14" x1="-31.3" y1="1455" x2="-31.4" y2="1455"/>
	<line id="svg_194" class="st14" x1="-29.4" y1="1454.8" x2="-29.5" y2="1454.8"/>
	<text id="headerSVG.repository" transform="matrix(1 0 0 1 -72.6 1478.45)" class="st23 st24">REPOSITORY</text>
	<text id="headerSVG.gitHub1" transform="matrix(1 0 0 1 -54.6 1490.45)" class="st23 st24">GitHub</text>
</g>
<g id="svg_144">
	<g id="svg_146" class="st25">
	</g>
	<g id="svg_149" class="st25">
		<path id="svg_151" class="st16" d="M-34.1,1447.1"/>
		<path id="svg_152" class="st16" d="M-34.1,1447.1"/>
	</g>
	<path id="svg_157" class="st14" d="M-35.1,1437.2"/>
	<g id="svg_158">
	</g>
	<path id="svg_180" class="st15" d="M-34.1,1451"/>
	<path id="svg_181" class="st15" d="M-34.1,1443"/>
	<line id="svg_187" class="st14" x1="-30.9" y1="1455" x2="-30.9" y2="1455"/>
</g>
<text id="headerSVG.think" transform="matrix(1 0 0 1 -184.813 1367.45)" class="st23 st24">THINK</text>
<text id="headerSVG.code" transform="matrix(1 0 0 1 -74.8 1367.45)" class="st23 st24">CODE</text>
<text id="headerSVG.deliver" transform="matrix(1 0 0 1 14.4 1367.45)" class="st23 st24">DELIVER</text>
<text id="headerSVG.run" transform="matrix(1 0 0 1 103.4 1367.45)" class="st23 st24">RUN</text>
<text id="headerSVG.learn" transform="matrix(1 0 0 1 192.4 1367.45)" class="st23 st24">LEARN</text>
<text id="headerSVG.jenkins" transform="matrix(1 0 0 1 24.4 1478.45)" class="st23 st24">JENKINS</text>
<text id="headerSVG.ibmCloud" transform="matrix(1 0 0 1 110.4 1478.45)" class="st23 st24">IBM Cloud</text>
<text id="headerSVG.devops" transform="matrix(1 0 0 1 214.4 1592.45)" class="st23 st24">DEVOPS</text>
<text id="headerSVG.insights" transform="matrix(1 0 0 1 211.4 1603.45)" class="st23 st24">INSIGHTS</text>
<rect id="rect-1" x="-185" y="1350" class="st26" width="103.5" height="4.5"/>
<g transform="matrix(1, 0, 0, 1, -112.190628, 0)">
	<circle id="circle-1" class="st0" cx="-24.3" cy="1436.9" r="26.5"/>
	<line id="line-1" class="st14" x1="-34.2" y1="1419.2" x2="-34.2" y2="1419.7"/>
	<path id="path-1" class="st15" d="M-12.5,1451c0,2.3-5.1,4.1-11.5,4.1s-11.5-1.8-11.5-4.1s5.1-4,11.5-4S-12.5,1448.8-12.5,1451z"/>
	<path id="path-2" class="st16" d="M-23.1,1451.7c-0.3,0.2-0.6,0.5-0.7,0.9c-0.1,0.1-0.1,0.3-0.1,0.5v0.3v0.3v0.5v1
		c1.6,0,0.2,0,2.1-0.1v-0.1v-0.2v-1.1v-0.3c0-0.2,0-0.2,0.1-0.5s0-0.4,0.2-0.6c0.1-0.1,0.1-0.1,0.1-0.2L-23.1,1451.7L-23.1,1451.7z"
		/>
	<path id="path-3" class="st16" d="M-17.9,1450.5L-17.9,1450.5c-0.1-0.2-0.4-0.2-0.8-0.2c-1.2,0-2.2,0.6-2.5,1.4h0.2l-0.2,0.4h-0.1
		v0.1l0,0v0.6v0.4v1.7v0.1l1.9-0.2v-2c0-0.1,0-0.1,0-0.2c0-0.2,0.1-0.4,0.1-0.5c0.1-0.2,0.2-0.4,0.4-0.6c0.2-0.2,0.4-0.3,0.7-0.5
		C-18,1450.9-17.8,1450.7-17.9,1450.5z"/>
	<path id="path-4" class="st16" d="M-24.5,1455.1L-24.5,1455.1c0.1,0,0.3,0,0.4,0s0.1,0,0.2,0l0,0c-0.1,0-0.1,0-0.2,0
		C-24.3,1455.1-24.4,1455.1-24.5,1455.1z"/>
	<path id="path-5" class="st16" d="M-27.3,1455c0.2,0,0.4,0,0.6,0.1l0,0C-26.9,1455-27.1,1455-27.3,1455L-27.3,1455z"/>
	<path id="path-6" class="st16" d="M-24.5,1453.6v-0.3v-0.3c0-0.2-0.1-0.3-0.1-0.5c-0.2-0.7-0.8-1.1-1.5-1.3v0.7h-1
		c0.2,0.1,0,0,0.3,0.3c0.2,0.2,0.1,0.3,0.2,0.6c0.1,0.3,0,0.3,0.1,0.5v0.3v1.4c0.7,0.1,1.4,0.1,2.1,0.1v-1L-24.5,1453.6
		C-24.4,1453.6-24.5,1453.6-24.5,1453.6z"/>
	<path id="path-7" class="st16" d="M-27.3,1455L-27.3,1455v-1.8v-0.4v-0.6l0,0c0-0.2-0.1-0.3-0.1-0.5c-0.2-0.8-1.3-1.5-2.6-1.5
		c-0.4,0-0.7,0-0.8,0.2l0,0c-0.1,0.2,0.1,0.4,0.3,0.5c0.3,0.2,0.5,0.3,0.7,0.5c0.2,0.2,0.3,0.4,0.4,0.6c0,0.1,0.1,0.3,0.1,0.5
		c0,0.1,0,0.1,0,0.2v1.9"/>
	<path id="path-8" class="st17" d="M-10.6,1434.8c2.5,0,4.8,0.3,6.9,0.7v-0.2c-2-0.4-4.2-0.7-6.6-0.7c-0.8,0-1.6,0-2.4,0.1
		c0.3-1.1,0.5-2.3,0.4-3.8c0-2.5-0.8-4.5-2.3-6c0.8-2.1-0.3-4.7-0.3-4.7s-2-0.2-5,1.9c-1.4-0.4-2.9-0.5-4.5-0.5
		c-1.7,0-3.3,0.2-4.9,0.7l0,0c-2.5-2-5.2-2-5.2-2s-1.2,3-0.2,5.1l0,0c-1.8,1.9-2.7,4.5-1.8,7.9c0.2,0.6,0.3,1.2,0.5,1.7
		c-0.7,0-1.4-0.1-2.1-0.1c-2.4,0-4.6,0.2-6.6,0.6v0.2c2-0.5,4.4-0.7,6.9-0.7c0.6,0,1.3,0,1.9,0.1c0.1,0.3,0.3,0.6,0.4,0.9
		c-0.8,0-1.7,0-2.6,0.1c-2.4,0.1-4.6,0.5-6.5,1v0.2c2-0.6,4.3-1,6.8-1.1c0.8,0,1.6-0.1,2.3-0.1c1.6,2.7,4.1,3.8,7.9,4.1
		c-0.9,0.5-1.5,1.4-1.6,2.4c-4.5,1.8-4.5-2.4-7-3.1c-0.2-0.1-0.3-0.1-0.5-0.1c-0.5-0.1-1,0-1.1,0.2l0,0v0.1c0,0.1,0,0.1,0.1,0.2
		c0.1,0.2,0.4,0.4,0.8,0.5c0.3,0.2,0.7,0.5,0.9,0.6c1.5,1.7,1.7,4.8,6.8,3.8v1.6v2.1c0,0.1,0,0.1,0,0.2c0,0.2-0.1,0.4-0.1,0.5
		c-0.1,0.2-0.2,0.4-0.4,0.6c-0.2,0.2-0.4,0.3-0.7,0.5c-0.2,0.1-0.4,0.3-0.3,0.5l0,0c0.1,0.2,0.3,0.2,0.8,0.2c1.3,0,2.3-0.6,2.6-1.5
		c0.1-0.1,0.1-0.3,0.1-0.5l0,0v-0.6v-0.4v-1.7v-2.1c0.1-0.8,0.5-1.4,0.6-1.3v1.3v3.5v2.1v0.3c0,0.2,0,0.2-0.1,0.5
		c-0.1,0.3,0,0.4-0.2,0.6c-0.3,0.3,0,0.1-0.4,0.3c-0.2,0.1-0.2,0.3-0.2,0.5c0.1,0.2,0.2,0.3,0.7,0.3c1.1-0.2,1.9-0.6,2.2-1.5
		c0.1-0.1,0.1-0.3,0.1-0.5v-0.3v-0.3v-0.5v-1.6v-5c0-0.2,0.1-0.3,0.3-0.3c0.1,0,0.3,0.1,0.3,0.3v5v1.6v0.5v0.3v0.3
		c0,0.2,0,0.3,0.1,0.5c0.2,0.8,1.1,1.3,2.2,1.5c0.4,0.1,0.6-0.1,0.7-0.3c0-0.2,0-0.4-0.2-0.5c-0.4-0.2-0.1,0-0.4-0.3
		c-0.2-0.2-0.1-0.4-0.2-0.6c-0.1-0.3,0-0.3-0.1-0.5v-0.3v-2.1v-3.5v-1.3c0.1-0.1,0.5,0.4,0.6,1.3v2.1v1.7v0.4v0.6l0,0
		c0,0.2,0,0.3,0.1,0.5c0.2,0.8,1.3,1.5,2.6,1.5c0.4,0,0.7,0,0.8-0.2l0,0c0.1-0.2-0.1-0.4-0.3-0.5c-0.3-0.2-0.5-0.3-0.7-0.5
		c-0.2-0.2-0.3-0.4-0.4-0.6c0-0.1-0.1-0.3-0.1-0.5c0-0.1,0-0.1,0-0.2v-2.1v-3.4c0-1.1-0.7-2.3-1.7-2.8c3.7-0.2,6.5-1.3,7.9-4.1
		c0.8,0,1.6,0,2.5,0.1c2.5,0.1,4.8,0.5,6.8,1.1v-0.2c-1.9-0.5-4.1-0.9-6.5-1c-0.9-0.1-1.8-0.1-2.7-0.1c0.1-0.3,0.2-0.6,0.3-0.9
		C-12,1434.8-11.3,1434.8-10.6,1434.8L-10.6,1434.8z"/>
	<path id="path-9" class="st18" d="M-15.1,1433.8c0-2.5-1.8-4.5-4.3-4.5l0,0c-2.7,0-3.1,0.2-4.9,0.2c-1.8,0-2.2-0.2-4.7-0.2
		c-0.1,0-0.2,0-0.4,0c-2.4,0-4.3,1.9-4.3,4.4c0,2,1.2,3.8,3,4.5l0,0c0,0.2,3.6,1.6,11.3,0.6c0.3,0,0.7-0.1,1.1-0.2l0,0l0,0
		C-16.4,1437.9-15.1,1435.9-15.1,1433.8z"/>
	<path id="path-10" class="st19" d="M-29.3,1429.8c0.1,0,0.3,0,0.4,0c2.5,0,2.9,0.2,4.7,0.2s2.2-0.2,4.9-0.2l0,0
		c2.4,0,4.1,1.9,4.3,4.2c0-0.1,0-0.1,0-0.2c0-2.5-1.8-4.5-4.3-4.5l0,0c-2.7,0-3.1,0.2-4.9,0.2c-1.8,0-2.2-0.2-4.7-0.2
		c-0.1,0-0.2,0-0.4,0c-2.4,0-4.3,1.9-4.3,4.4c0,0.1,0,0.1,0,0.2C-33.5,1431.6-31.7,1429.8-29.3,1429.8z"/>
	<ellipse id="ellipse-1" class="st20" cx="-29.3" cy="1433.7" rx="1.9" ry="2.8"/>
	<ellipse id="ellipse-2" class="st21" cx="-29.2" cy="1433.7" rx="1.3" ry="1.8"/>
	<circle id="circle-2" class="st20" cx="-29.7" cy="1433" r="0.4"/>
	<ellipse id="ellipse-3" class="st20" cx="-19.1" cy="1433.7" rx="1.9" ry="2.8"/>
	<ellipse id="ellipse-4" class="st21" cx="-19.3" cy="1433.8" rx="1.3" ry="1.8"/>
	<circle id="circle-3" class="st20" cx="-19.7" cy="1433" r="0.3"/>
	<circle id="circle-4" class="st21" cx="-24.4" cy="1436.2" r="0.5"/>
	<path id="path-11" class="st21" d="M-23.4,1437.2c-0.1,0-0.1,0.1-0.1,0.2c-0.1,0.3-0.4,0.5-0.8,0.5c-0.4,0-0.7-0.2-0.8-0.5
		c0-0.1-0.1-0.2-0.1-0.2s-0.1,0.1-0.1,0.2c0.1,0.4,0.5,0.8,1.1,0.8c0.5,0,1-0.3,1.1-0.8C-23.3,1437.3-23.4,1437.2-23.4,1437.2z"/>
	<path id="path-12" class="st15" d="M-36.9,1441.5c0,0.2-0.2,0.3-0.3,0.3c-0.2,0-0.3-0.2-0.3-0.3s0.3-1.4,0.3-1.4
		S-36.9,1441.3-36.9,1441.5z"/>
	<ellipse id="ellipse-5" class="st22" cx="-35.9" cy="1439.8" rx="0.2" ry="0.2"/>
	<ellipse id="ellipse-6" class="st22" cx="-35.2" cy="1440.3" rx="0.2" ry="0.2"/>
	
		<ellipse id="ellipse-7" transform="matrix(-0.3856 -0.9227 0.9227 -0.3856 -1377.704 1965.0258)" class="st22" cx="-34.6" cy="1441.2" rx="0.3" ry="0.2"/>
	
		<ellipse id="ellipse-8" transform="matrix(-0.6562 -0.7546 0.7546 -0.6562 -1144.0679 2362.9714)" class="st22" cx="-33.7" cy="1442.1" rx="0.3" ry="0.2"/>
	
		<ellipse id="ellipse-9" transform="matrix(-0.866 -0.5 0.5 -0.866 -782.823 2675.8508)" class="st22" cx="-32.9" cy="1442.8" rx="0.3" ry="0.2"/>
	
		<ellipse id="ellipse-10" transform="matrix(-0.9912 -0.1325 0.1325 -0.9912 -254.7296 2869.4783)" class="st22" cx="-31.9" cy="1443.2" rx="0.3" ry="0.2"/>
	
		<ellipse id="ellipse-11" transform="matrix(-6.732094e-02 -0.9977 0.9977 -6.732094e-02 -1472.5466 1509.9944)" class="st22" cx="-30.5" cy="1443.3" rx="0.2" ry="0.3"/>
	<path id="path-13" class="st22" d="M-29.2,1442.9c0,0.1,0,0.2-0.2,0.3c-0.2,0.1-0.3-0.1-0.3-0.2s0.1-0.2,0.3-0.3
		C-29.2,1442.7-29.2,1442.8-29.2,1442.9z"/>
	<path id="path-14" d="M-27.5,1440c-0.4,0.2-0.7,0.5-0.9,0.8c0.3-0.1,8.3-1.8,9.1,1.9c-0.1-1.1-0.7-2.1-1.7-2.7
		C-24.2,1440.3-27.5,1440-27.5,1440z"/>
	<path id="path-15" d="M-29.1,1442.4c0,1.2,0,2.2,0,2.2s-0.1,0-0.2,0C-29.3,1444.6-29.5,1443.6-29.1,1442.4z"/>
	<line id="line-2" class="st14" x1="-21.4" y1="1452" x2="-22.6" y2="1451.6"/>
	<line id="line-3" class="st14" x1="-21.3" y1="1455" x2="-20" y2="1455"/>
	<line id="line-4" class="st14" x1="-20.9" y1="1455" x2="-21.3" y2="1455"/>
	<line id="line-5" class="st14" x1="-20.6" y1="1454.9" x2="-20.9" y2="1455"/>
	<line id="line-6" class="st14" x1="-20.9" y1="1455" x2="-21.2" y2="1455"/>
	<line id="line-7" class="st14" x1="-19.4" y1="1454.8" x2="-19.8" y2="1454.8"/>
	<line id="line-8" class="st14" x1="-20.1" y1="1454.9" x2="-19.8" y2="1454.8"/>
	<line id="line-9" class="st14" x1="-20.5" y1="1454.9" x2="-20.1" y2="1454.9"/>
	<line id="line-10" class="st14" x1="-20.9" y1="1455" x2="-20.6" y2="1454.9"/>
	<line id="line-11" class="st14" x1="-20.5" y1="1454.9" x2="-20.6" y2="1454.9"/>
	<line id="line-12" class="st14" x1="-21.3" y1="1455" x2="-21.4" y2="1455"/>
	<line id="line-13" class="st14" x1="-19.4" y1="1454.8" x2="-19.5" y2="1454.8"/>
	<text id="headerSVG.issueTracker" transform="matrix(1 0 0 1 -72.6 1478.45)" class="st23 st24">ISSUE TRACKER</text>
	<text id="headerSVG.gitHub2" transform="matrix(1 0 0 1 -44.6 1490.45)" class="st23 st24">GitHub</text>
</g>
<rect id="svg_121_1_" x="283" y="1350" class="st13" width="83" height="4.5"/>
<text id="headerSVG.culture" transform="matrix(1 0 0 1 282.65 1368.15)" class="st23 st24">CULTURE</text>
<g id="svg_142_1_">
	<ellipse id="svg_143_1_" class="st0" cx="318.9" cy="1436.5" rx="27.1" ry="26.5"/>
	<g id="XMLID_4_">
		<g id="XMLID_6_">
			<path id="XMLID_21_" class="st27" d="M322.9,1425.2c-0.4-1.2-1.6-1.8-2.9-1.4s-1.8,1.6-1.4,2.8l5.9,17.7c0.4,1.1,1.6,1.7,2.8,1.4
				c1.2-0.3,1.9-1.6,1.5-2.8C328.7,1442.9,322.9,1425.2,322.9,1425.2z"/>
			<path id="XMLID_20_" class="st28" d="M313.7,1428.1c-0.4-1.2-1.6-1.8-2.9-1.4c-1.2,0.4-1.8,1.6-1.4,2.8l5.9,17.7
				c0.4,1.1,1.6,1.7,2.8,1.4c1.2-0.3,1.9-1.6,1.5-2.8L313.7,1428.1z"/>
			<path id="XMLID_19_" class="st29" d="M330.2,1439.9c1.2-0.4,1.8-1.6,1.4-2.8c-0.4-1.2-1.6-1.8-2.9-1.4l-18.1,5.8
				c-1.1,0.4-1.7,1.6-1.4,2.7c0.3,1.2,1.6,1.9,2.9,1.5C312.1,1445.6,330.2,1439.9,330.2,1439.9z"/>
			<path id="XMLID_18_" class="st30" d="M314.5,1444.9c1.2-0.4,2.8-0.8,4.3-1.4c-0.4-1.2-0.8-2.7-1.4-4.2l-4.3,1.4L314.5,1444.9z"/>
			<path id="XMLID_12_" class="st31" d="M323.6,1442c1.6-0.5,3.2-1,4.3-1.4c-0.4-1.2-0.8-2.7-1.4-4.2l-4.3,1.4L323.6,1442z"/>
			<path id="XMLID_11_" class="st32" d="M327.3,1430.9c1.2-0.4,1.8-1.6,1.4-2.8c-0.4-1.2-1.6-1.8-2.9-1.4l-18.1,5.7
				c-1.1,0.4-1.7,1.6-1.4,2.7c0.3,1.2,1.6,1.9,2.9,1.5C309.2,1436.7,327.3,1430.9,327.3,1430.9z"/>
			<path id="XMLID_10_" class="st33" d="M311.5,1435.9c1.2-0.4,2.8-0.8,4.3-1.4c-0.5-1.6-1-3.1-1.4-4.2l-4.3,1.4L311.5,1435.9z"/>
			<path id="XMLID_7_" class="st34" d="M320.6,1433c1.6-0.5,3.2-1,4.3-1.4c-0.5-1.6-1-3.1-1.4-4.2l-4.3,1.4L320.6,1433z"/>
		</g>
	</g>
</g>
<text id="headerSVG.slack" transform="matrix(1.0228 0 0 1 300.9434 1478.1006)" class="st23 st24">SLACK</text>
<g id="svg_198_1_">
	<polygon id="svg_199_1_" class="st5" points="324.2,1400.3 319.4,1409 314.6,1400.3 	"/>
</g>
<line id="svg_18_1_" class="st4" x1="319.7" y1="1405.5" x2="319.7" y2="1391.3"/>
<line id="svg_298" class="st4" x1="320.4" y1="1392" x2="235.4" y2="1392"/>
<g>
	<path d="M36,1448l4,4l17-17l-4-4L36,1448z M40,1449.2l-1.2-1.2l14.2-14.2l1.2,1.2L40,1449.2z"/>
	<polygon points="65,1433 63,1433 63,1431 56,1424 48,1424 59,1435 61,1435 61,1437 62,1438 66,1434 	"/>
</g>
<g>
	
		<linearGradient id="SVGID_1_" gradientUnits="userSpaceOnUse" x1="125.4962" y1="-654.5521" x2="130.766" y2="-644.9368" gradientTransform="matrix(1 0 0 -1 -4.44 794.31)">
		<stop  offset="0.11" style="stop-color:#0064FF"/>
		<stop  offset="0.15" style="stop-color:#0E7FF7"/>
		<stop  offset="0.24" style="stop-color:#26ADEA"/>
		<stop  offset="0.31" style="stop-color:#38D1DF"/>
		<stop  offset="0.39" style="stop-color:#45EAD8"/>
		<stop  offset="0.45" style="stop-color:#4DFAD4"/>
		<stop  offset="0.51" style="stop-color:#50FFD2"/>
		<stop  offset="1" style="stop-color:#50FFD2;stop-opacity:0"/>
	</linearGradient>
	<path class="st35" d="M125.3,1449.3L125.3,1449.3c-0.2,0-0.3,0-0.4,0c-3.5,0-6.4-2.9-6.4-6.4s2.9-6.4,6.4-6.4s6.4,2.9,6.4,6.4l0,0
		v0.1h1.3c0.1-4.2-3.4-7.8-7.7-7.8h-0.1h-0.2l0,0c-0.5,0-1,0.1-1.4,0.2l0,0c-4.2,0.9-6.9,5-6,9.2c0.8,3.6,3.9,6.1,7.6,6.1h0.5
		L125.3,1449.3L125.3,1449.3L125.3,1449.3z"/>
	
		<linearGradient id="SVGID_2_" gradientUnits="userSpaceOnUse" x1="154.2386" y1="-651.3209" x2="142.391" y2="-641.2665" gradientTransform="matrix(1 0 0 -1 -4.44 794.31)">
		<stop  offset="0.19" style="stop-color:#0064FF"/>
		<stop  offset="0.2" style="stop-color:#0267FE"/>
		<stop  offset="0.3" style="stop-color:#2497EB"/>
		<stop  offset="0.4" style="stop-color:#3CB9DD"/>
		<stop  offset="0.47" style="stop-color:#4BCED5"/>
		<stop  offset="0.52" style="stop-color:#50D6D2"/>
		<stop  offset="1" style="stop-color:#50FFD2;stop-opacity:0"/>
	</linearGradient>
	<path class="st36" d="M145.5,1432.7L145.5,1432.7c-0.1,0-0.2-0.1-0.3-0.1c-0.6-0.1-1.2-0.2-1.8-0.2H143c-3.4,0.1-6.5,2.1-7.9,5.2
		h1.5c0.4-0.6,0.8-1.1,1.3-1.6c1.5-1.5,3.5-2.3,5.5-2.3c0.3,0,0.5,0,0.8,0.1h0.1h0.1l0,0c4.3,0.5,7.3,4.5,6.8,8.7
		c-0.5,3.9-3.8,6.9-7.8,6.9h-0.1v1.3h0.1c5.1,0,9.2-4.1,9.2-9.2C152.5,1437.3,149.6,1433.7,145.5,1432.7L145.5,1432.7z"/>
	<rect x="125.3" y="1449.3" class="st37" width="17.9" height="1.3"/>
	
		<linearGradient id="SVGID_3_" gradientUnits="userSpaceOnUse" x1="131.1088" y1="-631.3394" x2="141.5741" y2="-647.9077" gradientTransform="matrix(1 0 0 -1 -4.44 794.31)">
		<stop  offset="0" style="stop-color:#0064FF"/>
		<stop  offset="3.000000e-02" style="stop-color:#0975FA"/>
		<stop  offset="0.12" style="stop-color:#22A6EC"/>
		<stop  offset="0.2" style="stop-color:#36CDE1"/>
		<stop  offset="0.28" style="stop-color:#44E8D9"/>
		<stop  offset="0.35" style="stop-color:#4DF9D4"/>
		<stop  offset="0.4" style="stop-color:#50FFD2"/>
		<stop  offset="0.71" style="stop-color:#50FFD2;stop-opacity:0"/>
	</linearGradient>
	<path class="st38" d="M134.9,1428.1c5.8,0,10.5,4.7,10.5,10.5s-4.7,10.5-10.5,10.5s-10.5-4.7-10.5-10.5S129.1,1428.1,134.9,1428.1
		 M134.9,1426.7c-6.6,0-12,5.4-12,12c0,6.6,5.4,12,12,12s12-5.4,12-12C146.9,1432.1,141.6,1426.7,134.9,1426.7L134.9,1426.7
		L134.9,1426.7z"/>
	
		<linearGradient id="SVGID_4_" gradientUnits="userSpaceOnUse" x1="134.6437" y1="-618.48" x2="117.5711" y2="-647.4579" gradientTransform="matrix(1 0 0 -1 -4.44 794.31)">
		<stop  offset="0" style="stop-color:#50FFD2"/>
		<stop  offset="1" style="stop-color:#0064FF"/>
	</linearGradient>
	<path class="st39" d="M118.4,1429.3l3.2,1.8c0.3,0.2,0.7,0.1,0.9-0.3c0.2-0.3,0.1-0.7-0.3-0.9l0,0l-3.2-1.8
		c-0.3-0.2-0.7-0.1-0.9,0.3C117.9,1428.7,118,1429.1,118.4,1429.3L118.4,1429.3z"/>
	
		<linearGradient id="SVGID_5_" gradientUnits="userSpaceOnUse" x1="136.5782" y1="-619.6202" x2="119.5055" y2="-648.5981" gradientTransform="matrix(1 0 0 -1 -4.44 794.31)">
		<stop  offset="0" style="stop-color:#50FFD2"/>
		<stop  offset="1" style="stop-color:#0064FF"/>
	</linearGradient>
	<path class="st40" d="M126.8,1425.4c0.2,0.3,0.6,0.4,0.9,0.3c0.3-0.2,0.4-0.6,0.3-0.9l0,0l-1.8-3.2c-0.2-0.3-0.6-0.4-0.9-0.3
		c-0.3,0.2-0.4,0.6-0.3,0.9l0,0L126.8,1425.4z"/>
	
		<linearGradient id="SVGID_6_" gradientUnits="userSpaceOnUse" x1="141.7116" y1="-622.6448" x2="124.639" y2="-651.6227" gradientTransform="matrix(1 0 0 -1 -4.44 794.31)">
		<stop  offset="0" style="stop-color:#50FFD2"/>
		<stop  offset="1" style="stop-color:#0064FF"/>
	</linearGradient>
	<path class="st41" d="M134.8,1423.7c0.4,0,0.7-0.3,0.7-0.7l0,0v-3.7c0-0.4-0.3-0.7-0.7-0.7s-0.7,0.3-0.7,0.7l0,0v3.7
		C134.1,1423.5,134.4,1423.7,134.8,1423.7L134.8,1423.7z"/>
	
		<linearGradient id="SVGID_7_" gradientUnits="userSpaceOnUse" x1="148.9005" y1="-626.8808" x2="131.8278" y2="-655.8588" gradientTransform="matrix(1 0 0 -1 -4.44 794.31)">
		<stop  offset="0" style="stop-color:#50FFD2"/>
		<stop  offset="1" style="stop-color:#0064FF"/>
	</linearGradient>
	<path class="st42" d="M141.9,1425.7c0.3,0.2,0.7,0.1,0.9-0.3l0,0l1.8-3.2c0.2-0.3,0.1-0.7-0.3-0.9c-0.3-0.2-0.7-0.1-0.9,0.3
		l-1.8,3.2C141.5,1425.1,141.6,1425.5,141.9,1425.7L141.9,1425.7z"/>
	
		<linearGradient id="SVGID_8_" gradientUnits="userSpaceOnUse" x1="156.1711" y1="-631.1638" x2="139.0984" y2="-660.1417" gradientTransform="matrix(1 0 0 -1 -4.44 794.31)">
		<stop  offset="0" style="stop-color:#50FFD2"/>
		<stop  offset="1" style="stop-color:#0064FF"/>
	</linearGradient>
	<path class="st43" d="M147.7,1431.2c0.1,0,0.3-0.1,0.3-0.1l3.2-1.8c0.3-0.2,0.4-0.6,0.3-0.9c-0.2-0.3-0.6-0.4-0.9-0.3l-3.2,1.8
		c-0.3,0.2-0.4,0.6-0.3,0.9C147.2,1431.1,147.5,1431.2,147.7,1431.2L147.7,1431.2z"/>
</g>
</svg>
