<?xml version="1.0" encoding="utf-8"?>
<!-- Generator: Adobe Illustrator 19.0.0, SVG Export Plug-In . SVG Version: 6.00 Build 0)  -->
<svg version="1.1" id="Layer_1" xmlns="http://www.w3.org/2000/svg" xmlns:xlink="http://www.w3.org/1999/xlink" x="0px" y="0px"
	 viewBox="-155 1082 551 258" style="enable-background:new -155 1082 551 258;" xml:space="preserve">
<style type="text/css">
	.st0{fill:#FFFFFF;stroke:#5AAAFA;stroke-miterlimit:10;}
	.st1{fill:#1CB3A0;}
	.st2{fill:#975AD1;}
	.st3{fill:#FC42A0;}
	.st4{fill:none;stroke:#5AAAFA;stroke-width:2;stroke-miterlimit:10;}
	.st5{fill:#5AAAFA;}
	.st6{fill:#2E3737;}
	.st7{fill:#586565;}
	.st8{fill:#FCE77F;}
	.st9{fill:#FCD432;}
	.st10{fill:#030506;}
	.st11{fill:#3D4747;}
	.st12{fill:#64BC46;}
	.st13{fill:#FC5255;}
	.st14{fill:none;}
	.st15{opacity:0.77;fill:#9CDAF0;enable-background:new    ;}
	.st16{opacity:0.77;fill:#201F1F;enable-background:new    ;}
	.st17{fill:#201F1F;}
	.st18{fill:#F4CAB1;}
	.st19{opacity:0.5;fill:#AC5C51;enable-background:new    ;}
	.st20{fill:#FFFFFF;}
	.st21{fill:#AC5C51;}
	.st22{fill:#9CDAF0;}
	.st23{font-family:'Arial'; font-weight:bold;}
	.st24{font-size:12px;}
	.st25{fill:#00B198;}
	.st26{fill:#00AED1;}
	.st27{fill:#3B4B54;}
	.st28{fill:none;stroke:#FFFFFF;stroke-width:0.5;stroke-miterlimit:10;}
	.st29{opacity:0.35;}
	.st30{fill:#EEC02B;}
	.st31{fill:#E8A723;}
	.st32{fill:#3EB890;}
	.st33{fill:#E01765;}
	.st34{fill:#472A49;}
	.st35{fill:#CC2027;}
	.st36{fill:#70CADB;}
	.st37{fill:#1A937D;}
	.st38{fill:#65863A;}
</style>
<title>background</title>
<title>Layer 1</title>
<g id="svg_1">
	<circle id="svg_2" class="st0" cx="164.4" cy="1168.5" r="26.5"/>
</g>
<rect id="svg_3" x="-45" y="1082" class="st1" width="83.5" height="4.5"/>
<rect id="svg_4" x="44.7" y="1082" class="st2" width="83.5" height="4.5"/>
<rect id="svg_5" x="134.3" y="1082" class="st3" width="83.5" height="4.5"/>
<circle id="svg_6" class="st0" cx="79.4" cy="1168.5" r="26.5"/>
<g id="svg_8">
	<g id="svg_9">
		<line id="svg_10" class="st4" x1="39.9" y1="1168.5" x2="29.6" y2="1168.5"/>
		<g id="svg_11">
			<polygon id="svg_12" class="st5" points="38.4,1163.5 47.1,1168.5 38.4,1173.4 			"/>
		</g>
	</g>
</g>
<g id="svg_13">
	<g id="svg_14">
		<line id="svg_15" class="st4" x1="124.4" y1="1168.5" x2="114.1" y2="1168.5"/>
		<g id="svg_16">
			<polygon id="svg_17" class="st5" points="122.9,1163.5 131.6,1168.5 122.9,1173.4 			"/>
		</g>
	</g>
</g>
<circle id="svg_83" class="st0" cx="265.8" cy="1284.4" r="26.5"/>
<path id="svg_100" class="st6" d="M268.8,1295.3l-6.8,0.5c-0.6,0-1.1-0.4-1.2-1l0,0c0-0.6,0.4-1.1,1-1.2l6.8-0.5
	c0.6,0,1.1,0.4,1.2,1l0,0C269.9,1294.8,269.4,1295.3,268.8,1295.3z"/>
<path id="svg_101" class="st6" d="M268.8,1298.6l-6.8,0.5c-0.6,0-1.1-0.4-1.2-1l0,0c0-0.6,0.4-1.1,1-1.2l6.8-0.4
	c0.6,0,1.1,0.4,1.2,1l0,0C269.9,1298.1,269.4,1298.6,268.8,1298.6L268.8,1298.6z"/>
<g id="svg_102">
	<path id="svg_103" class="st7" d="M261.9,1300.2h-0.1c0.2,1.9,1.8,3.4,3.6,3.4c2,0,3.6-1.7,3.6-3.8c0,0,0,0,0-0.1L261.9,1300.2
		L261.9,1300.2z"/>
</g>
<g id="svg_104">
	<path id="svg_105" class="st8" d="M276.1,1277.3c0-5.9-4.8-10.8-10.8-10.8s-10.8,4.8-10.8,10.8c0,2.8,1,5.3,2.7,7.1
		c1.7,2.1,2.5,2.8,2.5,6.3v0.3c0,0.5,0.4,0.9,0.9,0.9h9.2c0.5,0,0.9-0.4,0.9-0.9v-0.2c0-3.7,0.9-4.3,2.8-6.7l0,0
		C275.2,1282.3,276.1,1279.9,276.1,1277.3L276.1,1277.3z"/>
	<path id="svg_106" class="st8" d="M273.7,1284.2l0.1-0.2C273.8,1284,273.7,1284.1,273.7,1284.2L273.7,1284.2z"/>
</g>
<path id="svg_107" class="st9" d="M276.1,1277.3c0-5.9-4.8-10.8-10.8-10.8v25.4h4.6c0.5,0,0.9-0.4,0.9-0.9v-0.2
	c0-3.7,0.9-4.3,2.8-6.7l0,0C275.2,1282.3,276.1,1279.9,276.1,1277.3z"/>
<path id="svg_108" class="st10" d="M269.9,1297.6v-0.4c0-0.5-0.5-0.9-1-0.9l-3.5,0.3v2.3l3.7-0.3
	C269.5,1298.6,269.9,1298.1,269.9,1297.6L269.9,1297.6z"/>
<path id="svg_109" class="st10" d="M269.9,1294.3v-0.3c0-0.5-0.5-0.9-1-0.9l-3.5,0.3v2.2l3.7-0.3
	C269.5,1295.3,269.9,1294.8,269.9,1294.3z"/>
<path id="svg_110" class="st11" d="M269,1299.7l-3.6,0.3v3.6C267.4,1303.6,269,1301.9,269,1299.7C269,1299.8,269,1299.8,269,1299.7
	L269,1299.7z"/>
<circle id="svg_111" class="st2" cx="265.4" cy="1277.5" r="6.7"/>
<path id="svg_112" class="st3" d="M265.4,1270.8v13.4c3.7,0,6.7-3,6.7-6.7C272,1273.8,269.1,1270.8,265.4,1270.8z"/>
<path id="svg_113" class="st12" d="M270.5,1281.8c1.3-1.6,1.8-3.6,1.5-5.5l-6.6,1.2l-4.3,5.1C263.9,1285,268.1,1284.6,270.5,1281.8z
	"/>
<rect id="svg_114" x="223.3" y="1082" class="st3" width="83.5" height="4.5"/>
<rect id="svg_121" x="222.3" y="1082" class="st13" width="83.5" height="4.5"/>
<g id="svg_123">
	<polyline id="svg_124" class="st4" points="265,1242.8 265.4,1123.9 -6.1,1123.9 -6.4,1136.9 	"/>
	<g id="svg_125">
		<polygon id="svg_126" class="st5" points="270,1241.3 265,1250 260,1241.3 		"/>
	</g>
</g>
<g id="svg_128">
	<polyline id="svg_129" class="st4" points="265,1242.8 265,1123.9 80.3,1123.9 80.3,1136.9 	"/>
	<g id="svg_130">
		<polygon id="svg_131" class="st5" points="270,1241.3 265,1250 260,1241.3 		"/>
	</g>
</g>
<g id="svg_132">
	<g id="svg_133">
		<polyline id="svg_134" class="st4" points="-106.2,1138 -106.2,1123.9 165.3,1123.9 165.3,1136.9 		"/>
		<g id="svg_135">
			<polygon id="svg_136" class="st5" points="270,1241.3 265,1250 260,1241.3 			"/>
			<g transform="matrix(1, 0, 0, 1, -371, -109.300003)">
				<polygon id="polygon-2" class="st5" points="270,1243.3 265,1252 260,1243.3 				"/>
			</g>
		</g>
	</g>
</g>
<g>
	<circle id="svg_137" class="st0" cx="-4.3" cy="1168.9" r="26.5"/>
	<line id="svg_138" class="st14" x1="-14.2" y1="1151.2" x2="-14.2" y2="1151.7"/>
	<path id="svg_145" class="st15" d="M7.5,1183c0,2.3-5.1,4.1-11.5,4.1s-11.5-1.8-11.5-4.1s5.1-4,11.5-4S7.5,1180.8,7.5,1183z"/>
	<path id="svg_147" class="st16" d="M-3.1,1183.7c-0.3,0.2-0.6,0.5-0.7,0.9c-0.1,0.1-0.1,0.3-0.1,0.5v0.3v0.3v0.5v1
		c1.6,0,0.2,0,2.1-0.1v-0.1v-0.2v-1.1v-0.3c0-0.2,0-0.2,0.1-0.5s0-0.4,0.2-0.6c0.1-0.1,0.1-0.1,0.1-0.2L-3.1,1183.7L-3.1,1183.7z"/>
	<path id="svg_148" class="st16" d="M2.1,1182.5L2.1,1182.5c-0.1-0.2-0.4-0.2-0.8-0.2c-1.2,0-2.2,0.6-2.5,1.4H-1l-0.2,0.4h-0.1v0.1
		l0,0v0.6v0.4v1.7v0.1l1.9-0.2v-2c0-0.1,0-0.1,0-0.2c0-0.2,0.1-0.4,0.1-0.5c0.1-0.2,0.2-0.4,0.4-0.6c0.2-0.2,0.4-0.3,0.7-0.5
		C2,1182.9,2.2,1182.7,2.1,1182.5z"/>
	<path id="svg_150" class="st16" d="M-4.5,1187.1L-4.5,1187.1c0.1,0,0.3,0,0.4,0s0.1,0,0.2,0l0,0c-0.1,0-0.1,0-0.2,0
		C-4.3,1187.1-4.4,1187.1-4.5,1187.1z"/>
	<path id="svg_153" class="st16" d="M-7.3,1187c0.2,0,0.4,0,0.6,0.1l0,0C-6.9,1187-7.1,1187-7.3,1187L-7.3,1187z"/>
	<path id="svg_154" class="st16" d="M-4.5,1185.6v-0.3v-0.3c0-0.2-0.1-0.3-0.1-0.5c-0.2-0.7-0.8-1.1-1.5-1.3v0.7h-1
		c0.2,0.1,0,0,0.3,0.3c0.2,0.2,0.1,0.3,0.2,0.6c0.1,0.3,0,0.3,0.1,0.5v0.3v1.4c0.7,0.1,1.4,0.1,2.1,0.1v-1L-4.5,1185.6
		C-4.4,1185.6-4.5,1185.6-4.5,1185.6z"/>
	<path id="svg_155" class="st16" d="M-7.3,1187L-7.3,1187v-1.8v-0.4v-0.6l0,0c0-0.2-0.1-0.3-0.1-0.5c-0.2-0.8-1.3-1.5-2.6-1.5
		c-0.4,0-0.7,0-0.8,0.2l0,0c-0.1,0.2,0.1,0.4,0.3,0.5c0.3,0.2,0.5,0.3,0.7,0.5s0.3,0.4,0.4,0.6c0,0.1,0.1,0.3,0.1,0.5
		c0,0.1,0,0.1,0,0.2v1.9"/>
	<path id="svg_156" class="st17" d="M9.4,1166.8c2.5,0,4.8,0.3,6.9,0.7v-0.2c-2-0.4-4.2-0.7-6.6-0.7c-0.8,0-1.6,0-2.4,0.1
		c0.3-1.1,0.5-2.3,0.4-3.8c0-2.5-0.8-4.5-2.3-6c0.8-2.1-0.3-4.7-0.3-4.7s-2-0.2-5,1.9c-1.4-0.4-2.9-0.5-4.5-0.5
		c-1.7,0-3.3,0.2-4.9,0.7l0,0c-2.5-2-5.2-2-5.2-2s-1.2,3-0.2,5.1l0,0c-1.8,1.9-2.7,4.5-1.8,7.9c0.2,0.6,0.3,1.2,0.5,1.7
		c-0.7,0-1.4-0.1-2.1-0.1c-2.4,0-4.6,0.2-6.6,0.6v0.2c2-0.5,4.4-0.7,6.9-0.7c0.6,0,1.3,0,1.9,0.1c0.1,0.3,0.3,0.6,0.4,0.9
		c-0.8,0-1.7,0-2.6,0.1c-2.4,0.1-4.6,0.5-6.5,1v0.2c2-0.6,4.3-1,6.8-1.1c0.8,0,1.6-0.1,2.3-0.1c1.6,2.7,4.1,3.8,7.9,4.1
		c-0.9,0.5-1.5,1.4-1.6,2.4c-4.5,1.8-4.5-2.4-7-3.1c-0.2-0.1-0.3-0.1-0.5-0.1c-0.5-0.1-1,0-1.1,0.2l0,0v0.1c0,0.1,0,0.1,0.1,0.2
		c0.1,0.2,0.4,0.4,0.8,0.5c0.3,0.2,0.7,0.5,0.9,0.6c1.5,1.7,1.7,4.8,6.8,3.8v1.6v2.1c0,0.1,0,0.1,0,0.2c0,0.2-0.1,0.4-0.1,0.5
		c-0.1,0.2-0.2,0.4-0.4,0.6s-0.4,0.3-0.7,0.5c-0.2,0.1-0.4,0.3-0.3,0.5l0,0c0.1,0.2,0.3,0.2,0.8,0.2c1.3,0,2.3-0.6,2.6-1.5
		c0.1-0.1,0.1-0.3,0.1-0.5l0,0v-0.6v-0.4v-1.7v-2.1c0.1-0.8,0.5-1.4,0.6-1.3v1.3v3.5v2.1v0.3c0,0.2,0,0.2-0.1,0.5s0,0.4-0.2,0.6
		c-0.3,0.3,0,0.1-0.4,0.3c-0.2,0.1-0.2,0.3-0.2,0.5c0.1,0.2,0.2,0.3,0.7,0.3c1.1-0.2,1.9-0.6,2.2-1.5c0.1-0.1,0.1-0.3,0.1-0.5v-0.3
		v-0.3v-0.5v-1.6v-5c0-0.2,0.1-0.3,0.3-0.3c0.1,0,0.3,0.1,0.3,0.3v5v1.6v0.5v0.3v0.3c0,0.2,0,0.3,0.1,0.5c0.2,0.8,1.1,1.3,2.2,1.5
		c0.4,0.1,0.6-0.1,0.7-0.3c0-0.2,0-0.4-0.2-0.5c-0.4-0.2-0.1,0-0.4-0.3c-0.2-0.2-0.1-0.4-0.2-0.6c-0.1-0.3,0-0.3-0.1-0.5v-0.3v-2.1
		v-3.5v-1.3c0.1-0.1,0.5,0.4,0.6,1.3v2.1v1.7v0.4v0.6l0,0c0,0.2,0,0.3,0.1,0.5c0.2,0.8,1.3,1.5,2.6,1.5c0.4,0,0.7,0,0.8-0.2l0,0
		c0.1-0.2-0.1-0.4-0.3-0.5c-0.3-0.2-0.5-0.3-0.7-0.5s-0.3-0.4-0.4-0.6c0-0.1-0.1-0.3-0.1-0.5c0-0.1,0-0.1,0-0.2v-2.1v-3.4
		c0-1.1-0.7-2.3-1.7-2.8c3.7-0.2,6.5-1.3,7.9-4.1c0.8,0,1.6,0,2.5,0.1c2.5,0.1,4.8,0.5,6.8,1.1v-0.2c-1.9-0.5-4.1-0.9-6.5-1
		c-0.9-0.1-1.8-0.1-2.7-0.1c0.1-0.3,0.2-0.6,0.3-0.9C8,1166.8,8.7,1166.8,9.4,1166.8L9.4,1166.8z"/>
	<path id="svg_159" class="st18" d="M4.9,1165.8c0-2.5-1.8-4.5-4.3-4.5l0,0c-2.7,0-3.1,0.2-4.9,0.2s-2.2-0.2-4.7-0.2
		c-0.1,0-0.2,0-0.4,0c-2.4,0-4.3,1.9-4.3,4.4c0,2,1.2,3.8,3,4.5l0,0c0,0.2,3.6,1.6,11.3,0.6c0.3,0,0.7-0.1,1.1-0.2l0,0l0,0
		C3.6,1169.9,4.9,1167.9,4.9,1165.8z"/>
	<path id="svg_160" class="st19" d="M-9.3,1161.8c0.1,0,0.3,0,0.4,0c2.5,0,2.9,0.2,4.7,0.2s2.2-0.2,4.9-0.2l0,0
		c2.4,0,4.1,1.9,4.3,4.2c0-0.1,0-0.1,0-0.2c0-2.5-1.8-4.5-4.3-4.5l0,0c-2.7,0-3.1,0.2-4.9,0.2s-2.2-0.2-4.7-0.2c-0.1,0-0.2,0-0.4,0
		c-2.4,0-4.3,1.9-4.3,4.4c0,0.1,0,0.1,0,0.2C-13.5,1163.6-11.7,1161.8-9.3,1161.8z"/>
	<ellipse id="svg_161" class="st20" cx="-9.3" cy="1165.7" rx="1.9" ry="2.8"/>
	<ellipse id="svg_162" class="st21" cx="-9.2" cy="1165.7" rx="1.3" ry="1.8"/>
	<circle id="svg_163" class="st20" cx="-9.7" cy="1165" r="0.4"/>
	<ellipse id="svg_164" class="st20" cx="0.9" cy="1165.7" rx="1.9" ry="2.8"/>
	<ellipse id="svg_165" class="st21" cx="0.7" cy="1165.8" rx="1.3" ry="1.8"/>
	<circle id="svg_166" class="st20" cx="0.3" cy="1165" r="0.3"/>
	<circle id="svg_167" class="st21" cx="-4.4" cy="1168.2" r="0.5"/>
	<path id="svg_168" class="st21" d="M-3.4,1169.2c-0.1,0-0.1,0.1-0.1,0.2c-0.1,0.3-0.4,0.5-0.8,0.5s-0.7-0.2-0.8-0.5
		c0-0.1-0.1-0.2-0.1-0.2s-0.1,0.1-0.1,0.2c0.1,0.4,0.5,0.8,1.1,0.8c0.5,0,1-0.3,1.1-0.8C-3.3,1169.3-3.4,1169.2-3.4,1169.2z"/>
	<path id="svg_169" class="st15" d="M-16.9,1173.5c0,0.2-0.2,0.3-0.3,0.3c-0.2,0-0.3-0.2-0.3-0.3s0.3-1.4,0.3-1.4
		S-16.9,1173.3-16.9,1173.5z"/>
	<ellipse id="svg_170" class="st22" cx="-15.9" cy="1171.8" rx="0.2" ry="0.2"/>
	<ellipse id="svg_171" class="st22" cx="-15.2" cy="1172.3" rx="0.2" ry="0.2"/>
	
		<ellipse id="svg_172" transform="matrix(0.9227 -0.3856 0.3856 0.9227 -453.5063 85.0808)" class="st22" cx="-14.6" cy="1173.2" rx="0.2" ry="0.3"/>
	
		<ellipse id="svg_173" transform="matrix(0.7546 -0.6562 0.6562 0.7546 -773.8336 279.1492)" class="st22" cx="-13.7" cy="1174.1" rx="0.2" ry="0.3"/>
	
		<ellipse id="svg_174" transform="matrix(0.5 -0.866 0.866 0.5 -1023.8333 576.236)" class="st22" cx="-12.9" cy="1174.8" rx="0.2" ry="0.3"/>
	
		<ellipse id="svg_175" transform="matrix(0.1325 -0.9912 0.9912 0.1325 -1175.1759 1007.7053)" class="st22" cx="-11.9" cy="1175.2" rx="0.2" ry="0.3"/>
	
		<ellipse id="svg_176" transform="matrix(0.9977 -6.731883e-02 6.731883e-02 0.9977 -79.1459 1.9614)" class="st22" cx="-10.5" cy="1175.3" rx="0.3" ry="0.2"/>
	<path id="svg_177" class="st22" d="M-9.2,1174.9c0,0.1,0,0.2-0.2,0.3c-0.2,0.1-0.3-0.1-0.3-0.2c0-0.1,0.1-0.2,0.3-0.3
		C-9.2,1174.7-9.2,1174.8-9.2,1174.9z"/>
	<path id="svg_178" d="M-7.5,1172c-0.4,0.2-0.7,0.5-0.9,0.8c0.3-0.1,8.3-1.8,9.1,1.9c-0.1-1.1-0.7-2.1-1.7-2.7
		C-4.2,1172.3-7.5,1172-7.5,1172z"/>
	<path id="svg_179" d="M-9.1,1174.4c0,1.2,0,2.2,0,2.2s-0.1,0-0.2,0C-9.3,1176.6-9.5,1175.6-9.1,1174.4z"/>
	<line id="svg_182" class="st14" x1="-1.4" y1="1184" x2="-2.6" y2="1183.6"/>
	<line id="svg_183" class="st14" x1="-1.3" y1="1187" x2="0" y2="1187"/>
	<line id="svg_184" class="st14" x1="-0.9" y1="1187" x2="-1.3" y2="1187"/>
	<line id="svg_185" class="st14" x1="-0.6" y1="1186.9" x2="-0.9" y2="1187"/>
	<line id="svg_186" class="st14" x1="-0.9" y1="1187" x2="-1.2" y2="1187"/>
	<line id="svg_188" class="st14" x1="0.6" y1="1186.8" x2="0.2" y2="1186.8"/>
	<line id="svg_189" class="st14" x1="-0.1" y1="1186.9" x2="0.2" y2="1186.8"/>
	<line id="svg_190" class="st14" x1="-0.5" y1="1186.9" x2="-0.1" y2="1186.9"/>
	<line id="svg_191" class="st14" x1="-0.9" y1="1187" x2="-0.6" y2="1186.9"/>
	<line id="svg_192" class="st14" x1="-0.5" y1="1186.9" x2="-0.6" y2="1186.9"/>
	<line id="svg_193" class="st14" x1="-1.3" y1="1187" x2="-1.4" y2="1187"/>
	<line id="svg_194" class="st14" x1="0.6" y1="1186.8" x2="0.5" y2="1186.8"/>
	<text id="repository" transform="matrix(1 0 0 1 -42.6 1210.45)" class="st23 st24">REPOSITORY</text>
	<text id="gitHub" transform="matrix(1 0 0 1 -24.6 1222.45)" class="st23 st24">GitHub</text>
</g>
<polygon id="svg_139" class="st25" points="166.8,1169.4 162.6,1162.1 166.8,1154.9 175.1,1154.9 179.3,1162.1 175.1,1169.4 "/>
<polygon id="svg_140" class="st26" points="166.8,1184.5 162.6,1177.3 166.8,1170 175.1,1170 179.3,1177.3 175.1,1184.5 "/>
<polygon id="svg_141" class="st27" points="153.7,1176.9 149.5,1169.6 153.7,1162.3 162.1,1162.3 166.2,1169.6 162.1,1176.9 "/>
<circle id="svg_142" class="st28" cx="166.6" cy="1169.6" r="8.3"/>
<polygon id="svg_143" class="st28" points="162.3,1162.3 162.3,1176.9 174.9,1169.6 "/>
<g id="svg_144">
	<g id="svg_146" class="st29">
	</g>
	<g id="svg_149" class="st29">
		<path id="svg_151" class="st16" d="M-4.1,1179.1"/>
		<path id="svg_152" class="st16" d="M-4.1,1179.1"/>
	</g>
	<path id="svg_157" class="st14" d="M-5.1,1169.2"/>
	<g id="svg_158">
	</g>
	<path id="svg_180" class="st15" d="M-4.1,1183"/>
	<path id="svg_181" class="st15" d="M-4.1,1175"/>
	<line id="svg_187" class="st14" x1="-0.9" y1="1187" x2="-0.9" y2="1187"/>
</g>
<text id="think" transform="matrix(1 0 0 1 -154.813 1099.45)" class="st23 st24">THINK</text>
<text id="code" transform="matrix(1 0 0 1 -44.8 1099.45)" class="st23 st24">CODE</text>
<text id="deliver" transform="matrix(1 0 0 1 44.4 1099.45)" class="st23 st24">DELIVER</text>
<text id="run" transform="matrix(1 0 0 1 133.4 1099.45)" class="st23 st24">RUN</text>
<text id="learn" transform="matrix(1 0 0 1 222.4 1099.45)" class="st23 st24">LEARN</text>
<text id="pipeline" transform="matrix(1 0 0 1 54.4 1210.45)" class="st23 st24">JENKINS</text>
<text id="bluemix" transform="matrix(1 0 0 1 140.4 1210.45)" class="st23 st24">BLUEMIX</text>
<text id="devops" transform="matrix(1 0 0 1 244.4 1324.45)" class="st23 st24">DEVOPS</text>
<text id="insights" transform="matrix(1 0 0 1 241.4 1335.45)" class="st23 st24">INSIGHTS</text>
<rect id="rect-1" x="-155" y="1082" class="st30" width="103.5" height="4.5"/>
<g transform="matrix(1, 0, 0, 1, -112.190628, 0)">
	<circle id="circle-1" class="st0" cx="5.7" cy="1168.9" r="26.5"/>
	<line id="line-1" class="st14" x1="-4.2" y1="1151.2" x2="-4.2" y2="1151.7"/>
	<path id="path-1" class="st15" d="M17.5,1183c0,2.3-5.1,4.1-11.5,4.1s-11.5-1.8-11.5-4.1s5.1-4,11.5-4S17.5,1180.8,17.5,1183z"/>
	<path id="path-2" class="st16" d="M6.9,1183.7c-0.3,0.2-0.6,0.5-0.7,0.9c-0.1,0.1-0.1,0.3-0.1,0.5v0.3v0.3v0.5v1
		c1.6,0,0.2,0,2.1-0.1v-0.1v-0.2v-1.1v-0.3c0-0.2,0-0.2,0.1-0.5s0-0.4,0.2-0.6c0.1-0.1,0.1-0.1,0.1-0.2L6.9,1183.7L6.9,1183.7z"/>
	<path id="path-3" class="st16" d="M12.1,1182.5L12.1,1182.5c-0.1-0.2-0.4-0.2-0.8-0.2c-1.2,0-2.2,0.6-2.5,1.4H9l-0.2,0.4H8.7v0.1
		l0,0v0.6v0.4v1.7v0.1l1.9-0.2v-2c0-0.1,0-0.1,0-0.2c0-0.2,0.1-0.4,0.1-0.5c0.1-0.2,0.2-0.4,0.4-0.6s0.4-0.3,0.7-0.5
		C12,1182.9,12.2,1182.7,12.1,1182.5z"/>
	<path id="path-4" class="st16" d="M5.5,1187.1L5.5,1187.1c0.1,0,0.3,0,0.4,0s0.1,0,0.2,0l0,0c-0.1,0-0.1,0-0.2,0
		C5.7,1187.1,5.6,1187.1,5.5,1187.1z"/>
	<path id="path-5" class="st16" d="M2.7,1187c0.2,0,0.4,0,0.6,0.1l0,0C3.1,1187,2.9,1187,2.7,1187L2.7,1187z"/>
	<path id="path-6" class="st16" d="M5.5,1185.6v-0.3v-0.3c0-0.2-0.1-0.3-0.1-0.5c-0.2-0.7-0.8-1.1-1.5-1.3v0.7h-1
		c0.2,0.1,0,0,0.3,0.3c0.2,0.2,0.1,0.3,0.2,0.6c0.1,0.3,0,0.3,0.1,0.5v0.3v1.4c0.7,0.1,1.4,0.1,2.1,0.1v-1L5.5,1185.6
		C5.6,1185.6,5.5,1185.6,5.5,1185.6z"/>
	<path id="path-7" class="st16" d="M2.7,1187L2.7,1187v-1.8v-0.4v-0.6l0,0c0-0.2-0.1-0.3-0.1-0.5c-0.2-0.8-1.3-1.5-2.6-1.5
		c-0.4,0-0.7,0-0.8,0.2l0,0c-0.1,0.2,0.1,0.4,0.3,0.5c0.3,0.2,0.5,0.3,0.7,0.5s0.3,0.4,0.4,0.6c0,0.1,0.1,0.3,0.1,0.5
		c0,0.1,0,0.1,0,0.2v1.9"/>
	<path id="path-8" class="st17" d="M19.4,1166.8c2.5,0,4.8,0.3,6.9,0.7v-0.2c-2-0.4-4.2-0.7-6.6-0.7c-0.8,0-1.6,0-2.4,0.1
		c0.3-1.1,0.5-2.3,0.4-3.8c0-2.5-0.8-4.5-2.3-6c0.8-2.1-0.3-4.7-0.3-4.7s-2-0.2-5,1.9c-1.4-0.4-2.9-0.5-4.5-0.5
		c-1.7,0-3.3,0.2-4.9,0.7l0,0c-2.5-2-5.2-2-5.2-2s-1.2,3-0.2,5.1l0,0c-1.8,1.9-2.7,4.5-1.8,7.9c0.2,0.6,0.3,1.2,0.5,1.7
		c-0.7,0-1.4-0.1-2.1-0.1c-2.4,0-4.6,0.2-6.6,0.6v0.2c2-0.5,4.4-0.7,6.9-0.7c0.6,0,1.3,0,1.9,0.1c0.1,0.3,0.3,0.6,0.4,0.9
		c-0.8,0-1.7,0-2.6,0.1c-2.4,0.1-4.6,0.5-6.5,1v0.2c2-0.6,4.3-1,6.8-1.1c0.8,0,1.6-0.1,2.3-0.1c1.6,2.7,4.1,3.8,7.9,4.1
		c-0.9,0.5-1.5,1.4-1.6,2.4c-4.5,1.8-4.5-2.4-7-3.1c-0.2-0.1-0.3-0.1-0.5-0.1c-0.5-0.1-1,0-1.1,0.2l0,0v0.1c0,0.1,0,0.1,0.1,0.2
		c0.1,0.2,0.4,0.4,0.8,0.5c0.3,0.2,0.7,0.5,0.9,0.6c1.5,1.7,1.7,4.8,6.8,3.8v1.6v2.1c0,0.1,0,0.1,0,0.2c0,0.2-0.1,0.4-0.1,0.5
		c-0.1,0.2-0.2,0.4-0.4,0.6c-0.2,0.2-0.4,0.3-0.7,0.5c-0.2,0.1-0.4,0.3-0.3,0.5l0,0c0.1,0.2,0.3,0.2,0.8,0.2c1.3,0,2.3-0.6,2.6-1.5
		c0.1-0.1,0.1-0.3,0.1-0.5l0,0v-0.6v-0.4v-1.7v-2.1c0.1-0.8,0.5-1.4,0.6-1.3v1.3v3.5v2.1v0.3c0,0.2,0,0.2-0.1,0.5s0,0.4-0.2,0.6
		c-0.3,0.3,0,0.1-0.4,0.3c-0.2,0.1-0.2,0.3-0.2,0.5c0.1,0.2,0.2,0.3,0.7,0.3c1.1-0.2,1.9-0.6,2.2-1.5c0.1-0.1,0.1-0.3,0.1-0.5v-0.3
		v-0.3v-0.5v-1.6v-5c0-0.2,0.1-0.3,0.3-0.3c0.1,0,0.3,0.1,0.3,0.3v5v1.6v0.5v0.3v0.3c0,0.2,0,0.3,0.1,0.5c0.2,0.8,1.1,1.3,2.2,1.5
		c0.4,0.1,0.6-0.1,0.7-0.3c0-0.2,0-0.4-0.2-0.5c-0.4-0.2-0.1,0-0.4-0.3c-0.2-0.2-0.1-0.4-0.2-0.6c-0.1-0.3,0-0.3-0.1-0.5v-0.3v-2.1
		v-3.5v-1.3c0.1-0.1,0.5,0.4,0.6,1.3v2.1v1.7v0.4v0.6l0,0c0,0.2,0,0.3,0.1,0.5c0.2,0.8,1.3,1.5,2.6,1.5c0.4,0,0.7,0,0.8-0.2l0,0
		c0.1-0.2-0.1-0.4-0.3-0.5c-0.3-0.2-0.5-0.3-0.7-0.5s-0.3-0.4-0.4-0.6c0-0.1-0.1-0.3-0.1-0.5c0-0.1,0-0.1,0-0.2v-2.1v-3.4
		c0-1.1-0.7-2.3-1.7-2.8c3.7-0.2,6.5-1.3,7.9-4.1c0.8,0,1.6,0,2.5,0.1c2.5,0.1,4.8,0.5,6.8,1.1v-0.2c-1.9-0.5-4.1-0.9-6.5-1
		c-0.9-0.1-1.8-0.1-2.7-0.1c0.1-0.3,0.2-0.6,0.3-0.9C18,1166.8,18.7,1166.8,19.4,1166.8L19.4,1166.8z"/>
	<path id="path-9" class="st18" d="M14.9,1165.8c0-2.5-1.8-4.5-4.3-4.5l0,0c-2.7,0-3.1,0.2-4.9,0.2s-2.2-0.2-4.7-0.2
		c-0.1,0-0.2,0-0.4,0c-2.4,0-4.3,1.9-4.3,4.4c0,2,1.2,3.8,3,4.5l0,0c0,0.2,3.6,1.6,11.3,0.6c0.3,0,0.7-0.1,1.1-0.2l0,0l0,0
		C13.6,1169.9,14.9,1167.9,14.9,1165.8z"/>
	<path id="path-10" class="st19" d="M0.7,1161.8c0.1,0,0.3,0,0.4,0c2.5,0,2.9,0.2,4.7,0.2s2.2-0.2,4.9-0.2l0,0
		c2.4,0,4.1,1.9,4.3,4.2c0-0.1,0-0.1,0-0.2c0-2.5-1.8-4.5-4.3-4.5l0,0c-2.7,0-3.1,0.2-4.9,0.2s-2.2-0.2-4.7-0.2c-0.1,0-0.2,0-0.4,0
		c-2.4,0-4.3,1.9-4.3,4.4c0,0.1,0,0.1,0,0.2C-3.5,1163.6-1.7,1161.8,0.7,1161.8z"/>
	<ellipse id="ellipse-1" class="st20" cx="0.7" cy="1165.7" rx="1.9" ry="2.8"/>
	<ellipse id="ellipse-2" class="st21" cx="0.8" cy="1165.7" rx="1.3" ry="1.8"/>
	<circle id="circle-2" class="st20" cx="0.3" cy="1165" r="0.4"/>
	<ellipse id="ellipse-3" class="st20" cx="10.9" cy="1165.7" rx="1.9" ry="2.8"/>
	<ellipse id="ellipse-4" class="st21" cx="10.7" cy="1165.8" rx="1.3" ry="1.8"/>
	<circle id="circle-3" class="st20" cx="10.3" cy="1165" r="0.3"/>
	<circle id="circle-4" class="st21" cx="5.6" cy="1168.2" r="0.5"/>
	<path id="path-11" class="st21" d="M6.6,1169.2c-0.1,0-0.1,0.1-0.1,0.2c-0.1,0.3-0.4,0.5-0.8,0.5s-0.7-0.2-0.8-0.5
		c0-0.1-0.1-0.2-0.1-0.2s-0.1,0.1-0.1,0.2c0.1,0.4,0.5,0.8,1.1,0.8c0.5,0,1-0.3,1.1-0.8C6.7,1169.3,6.6,1169.2,6.6,1169.2z"/>
	<path id="path-12" class="st15" d="M-6.9,1173.5c0,0.2-0.2,0.3-0.3,0.3c-0.2,0-0.3-0.2-0.3-0.3s0.3-1.4,0.3-1.4
		S-6.9,1173.3-6.9,1173.5z"/>
	<ellipse id="ellipse-5" class="st22" cx="-5.9" cy="1171.8" rx="0.2" ry="0.2"/>
	<ellipse id="ellipse-6" class="st22" cx="-5.2" cy="1172.3" rx="0.2" ry="0.2"/>
	
		<ellipse id="ellipse-7" transform="matrix(0.9227 -0.3856 0.3856 0.9227 -452.7324 88.9381)" class="st22" cx="-4.6" cy="1173.2" rx="0.2" ry="0.3"/>
	
		<ellipse id="ellipse-8" transform="matrix(0.7546 -0.6562 0.6562 0.7546 -771.3794 285.7113)" class="st22" cx="-3.7" cy="1174.1" rx="0.2" ry="0.3"/>
	
		<ellipse id="ellipse-9" transform="matrix(0.5 -0.866 0.866 0.5 -1018.8332 584.895)" class="st22" cx="-2.9" cy="1174.8" rx="0.2" ry="0.3"/>
	
		<ellipse id="ellipse-10" transform="matrix(0.1325 -0.9912 0.9912 0.1325 -1166.5005 1017.617)" class="st22" cx="-1.9" cy="1175.2" rx="0.2" ry="0.3"/>
	
		<ellipse id="ellipse-11" transform="matrix(0.9977 -6.731883e-02 6.731883e-02 0.9977 -79.1231 2.6348)" class="st22" cx="-0.5" cy="1175.3" rx="0.3" ry="0.2"/>
	<path id="path-13" class="st22" d="M0.8,1174.9c0,0.1,0,0.2-0.2,0.3c-0.2,0.1-0.3-0.1-0.3-0.2c0-0.1,0.1-0.2,0.3-0.3
		C0.8,1174.7,0.8,1174.8,0.8,1174.9z"/>
	<path id="path-14" d="M2.5,1172c-0.4,0.2-0.7,0.5-0.9,0.8c0.3-0.1,8.3-1.8,9.1,1.9c-0.1-1.1-0.7-2.1-1.7-2.7
		C5.8,1172.3,2.5,1172,2.5,1172z"/>
	<path id="path-15" d="M0.9,1174.4c0,1.2,0,2.2,0,2.2s-0.1,0-0.2,0C0.7,1176.6,0.5,1175.6,0.9,1174.4z"/>
	<line id="line-2" class="st14" x1="8.6" y1="1184" x2="7.4" y2="1183.6"/>
	<line id="line-3" class="st14" x1="8.7" y1="1187" x2="10" y2="1187"/>
	<line id="line-4" class="st14" x1="9.1" y1="1187" x2="8.7" y2="1187"/>
	<line id="line-5" class="st14" x1="9.4" y1="1186.9" x2="9.1" y2="1187"/>
	<line id="line-6" class="st14" x1="9.1" y1="1187" x2="8.8" y2="1187"/>
	<line id="line-7" class="st14" x1="10.6" y1="1186.8" x2="10.2" y2="1186.8"/>
	<line id="line-8" class="st14" x1="9.9" y1="1186.9" x2="10.2" y2="1186.8"/>
	<line id="line-9" class="st14" x1="9.5" y1="1186.9" x2="9.9" y2="1186.9"/>
	<line id="line-10" class="st14" x1="9.1" y1="1187" x2="9.4" y2="1186.9"/>
	<line id="line-11" class="st14" x1="9.5" y1="1186.9" x2="9.4" y2="1186.9"/>
	<line id="line-12" class="st14" x1="8.7" y1="1187" x2="8.6" y2="1187"/>
	<line id="line-13" class="st14" x1="10.6" y1="1186.8" x2="10.5" y2="1186.8"/>
	<text id="text-1" transform="matrix(1 0 0 1 -42.6 1210.45)" class="st23 st24">ISSUE TRACKER</text>
	<text id="text-2" transform="matrix(1 0 0 1 -14.6 1222.45)" class="st23 st24">GitHub</text>
</g>
<rect id="svg_121_1_" x="313" y="1082" class="st13" width="83" height="4.5"/>
<text id="culture" transform="matrix(1 0 0 1 321.65 1100.15)" class="st23 st24">CULTURE</text>
<g id="svg_142_1_">
	<ellipse id="svg_143_1_" class="st0" cx="348.9" cy="1168.5" rx="27.1" ry="26.5"/>
	<g id="XMLID_4_">
		<g id="XMLID_6_">
			<path id="XMLID_21_" class="st31" d="M352.9,1157.2c-0.4-1.2-1.6-1.8-2.9-1.4c-1.3,0.4-1.8,1.6-1.4,2.8l5.9,17.7
				c0.4,1.1,1.6,1.7,2.8,1.4c1.2-0.3,1.9-1.6,1.5-2.8C358.7,1174.9,352.9,1157.2,352.9,1157.2z"/>
			<path id="XMLID_20_" class="st32" d="M343.7,1160.1c-0.4-1.2-1.6-1.8-2.9-1.4c-1.2,0.4-1.8,1.6-1.4,2.8l5.9,17.7
				c0.4,1.1,1.6,1.7,2.8,1.4c1.2-0.3,1.9-1.6,1.5-2.8L343.7,1160.1z"/>
			<path id="XMLID_19_" class="st33" d="M360.2,1171.9c1.2-0.4,1.8-1.6,1.4-2.8c-0.4-1.2-1.6-1.8-2.9-1.4l-18.1,5.8
				c-1.1,0.4-1.7,1.6-1.4,2.7c0.3,1.2,1.6,1.9,2.9,1.5C342.1,1177.6,360.2,1171.9,360.2,1171.9z"/>
			<path id="XMLID_18_" class="st34" d="M344.5,1176.9c1.2-0.4,2.8-0.8,4.3-1.4c-0.4-1.2-0.8-2.7-1.4-4.2l-4.3,1.4L344.5,1176.9z"/>
			<path id="XMLID_12_" class="st35" d="M353.6,1174c1.6-0.5,3.2-1,4.3-1.4c-0.4-1.2-0.8-2.7-1.4-4.2l-4.3,1.4L353.6,1174z"/>
			<path id="XMLID_11_" class="st36" d="M357.3,1162.9c1.2-0.4,1.8-1.6,1.4-2.8c-0.4-1.2-1.6-1.8-2.9-1.4l-18.1,5.7
				c-1.1,0.4-1.7,1.6-1.4,2.7c0.3,1.2,1.6,1.9,2.9,1.5C339.2,1168.7,357.3,1162.9,357.3,1162.9z"/>
			<path id="XMLID_10_" class="st37" d="M341.5,1167.9c1.2-0.4,2.8-0.8,4.3-1.4c-0.5-1.6-1-3.1-1.4-4.2l-4.3,1.4L341.5,1167.9z"/>
			<path id="XMLID_7_" class="st38" d="M350.6,1165c1.6-0.5,3.2-1,4.3-1.4c-0.5-1.6-1-3.1-1.4-4.2l-4.3,1.4L350.6,1165z"/>
		</g>
	</g>
</g>
<text id="slack" transform="matrix(1.0228 0 0 1 330.9434 1210.1006)" class="st23 st24">SLACK</text>
<g id="svg_198_1_">
	<polygon id="svg_199_1_" class="st5" points="354.2,1132.3 349.4,1141 344.6,1132.3 	"/>
</g>
<line id="svg_18_1_" class="st4" x1="349.7" y1="1137.5" x2="349.7" y2="1123.3"/>
<line id="svg_298" class="st4" x1="350.4" y1="1124" x2="265.4" y2="1124"/>
<g>
	<path d="M66,1180l4,4l17-17l-4-4L66,1180z M70,1181.2l-1.2-1.2l14.2-14.2l1.2,1.2L70,1181.2z"/>
	<polygon points="95,1165 93,1165 93,1163 86,1156 78,1156 89,1167 91,1167 91,1169 92,1170 96,1166 	"/>
</g>
</svg>
