<?xml version="1.0" encoding="utf-8"?>
<!-- Generator: Adobe Illustrator 19.0.0, SVG Export Plug-In . SVG Version: 6.00 Build 0)  -->
<svg version="1.1" id="Layer_1" xmlns="http://www.w3.org/2000/svg" xmlns:xlink="http://www.w3.org/1999/xlink" x="0px" y="0px"
	 viewBox="-104 554.5 556 274.5" style="enable-background:new -104 554.5 556 274.5;" xml:space="preserve">
<style type="text/css">
	.st0{fill:none;}
	.st1{fill:#FFFFFF;stroke:#5AAAFA;stroke-miterlimit:10;}
	.st2{fill:#1CB3A0;}
	.st3{fill:#975AD1;}
	.st4{fill:#FC42A0;}
	.st5{fill:none;stroke:#5AAAFA;stroke-width:2;stroke-miterlimit:10;}
	.st6{fill:#5AAAFA;}
	.st7{fill:#231F20;}
	.st8{fill:#FCC215;}
	.st9{fill:#FFFFFF;}
	.st10{fill:#2E3737;}
	.st11{fill:#586565;}
	.st12{fill:#FCE77F;}
	.st13{fill:#FCD432;}
	.st14{fill:#030506;}
	.st15{fill:#3D4747;}
	.st16{fill:#64BC46;}
	.st17{fill:#FC5255;}
	.st18{opacity:0.77;fill:#9CDAF0;enable-background:new    ;}
	.st19{opacity:0.77;fill:#201F1F;enable-background:new    ;}
	.st20{fill:#201F1F;}
	.st21{fill:#F4CAB1;}
	.st22{opacity:0.5;fill:#AC5C51;enable-background:new    ;}
	.st23{fill:#AC5C51;}
	.st24{fill:#9CDAF0;}
	.st25{font-family:'Arial-BoldMT';}
	.st26{font-size:12px;}
	.st27{fill:#00B198;}
	.st28{fill:#00AED1;}
	.st29{fill:#3B4B54;}
	.st30{fill:none;stroke:#FFFFFF;stroke-width:0.5;stroke-miterlimit:10;}
	.st31{opacity:0.35;}
	.st32{fill:#EEC02B;}
	.st33{fill:#E8A723;}
	.st34{fill:#3EB890;}
	.st35{fill:#E01765;}
	.st36{fill:#472A49;}
	.st37{fill:#CC2027;}
	.st38{fill:#70CADB;}
	.st39{fill:#1A937D;}
	.st40{fill:#65863A;}
	.st41{fill:#3D70B2;}
	.st42{fill:#8C9BA5;}
	.st43{fill:#DFE3E6;}
</style>
<g>
	<title>background</title>
	<rect id="canvas_background" x="5" y="554.5" class="st0" width="452" height="274.5"/>
</g>
<title>Layer 1</title>
<g id="svg_1">
	<circle id="svg_2" class="st1" cx="215.4" cy="642" r="26.5"/>
</g>
<rect id="svg_3" x="6" y="555.5" class="st2" width="83.5" height="4.5"/>
<rect id="svg_4" x="95.7" y="555.5" class="st3" width="83.5" height="4.5"/>
<rect id="svg_5" x="185.3" y="555.5" class="st4" width="83.5" height="4.5"/>
<circle id="svg_6" class="st1" cx="130.4" cy="642" r="26.5"/>
<line id="svg_7" class="st5" x1="46.8" y1="723.5" x2="46.8" y2="704.5"/>
<g id="svg_8">
	<g id="svg_9">
		<line id="svg_10" class="st5" x1="90.9" y1="642" x2="80.6" y2="642"/>
		<g id="svg_11">
			<polygon id="svg_12" class="st6" points="89.4,637 98.1,642 89.4,646.9 			"/>
		</g>
	</g>
</g>
<g id="svg_13">
	<g id="svg_14">
		<line id="svg_15" class="st5" x1="175.4" y1="642" x2="165.1" y2="642"/>
		<g id="svg_16">
			<polygon id="svg_17" class="st6" points="173.9,637 182.6,642 173.9,646.9 			"/>
		</g>
	</g>
</g>
<circle id="svg_18" class="st1" cx="46.8" cy="757.4" r="26.5"/>
<path id="XMLID_17_" class="st7" d="M56.3,772.2H37c-2.8,0-5-2.3-5-5v-19.6c0-2.8,2.3-5,5-5h19.3c2.8,0,5,2.3,5,4.9v19.6
	C61.3,769.9,59.1,772.2,56.3,772.2z"/>
<circle id="XMLID_16_" class="st8" cx="55.5" cy="750.9" r="2.8"/>
<circle id="XMLID_15_" class="st8" cx="51.5" cy="757.6" r="2.8"/>
<circle id="XMLID_14_" class="st8" cx="47.5" cy="764.4" r="2.8"/>
<path id="XMLID_13_" class="st9" d="M47.4,760.2H47c-0.2,0-0.3-0.1-0.3-0.3V755c0-0.2,0.1-0.3,0.3-0.3h0.4c0.2,0,0.3,0.1,0.3,0.3
	v4.8C47.7,760.1,47.6,760.2,47.4,760.2z"/>
<path id="XMLID_3_" class="st9" d="M59.7,754.7L59.7,754.7c-0.3,0-0.5,0.2-0.5,0.5v3.1l-2.6-3.4l0,0l-0.1-0.1l0,0h-0.1h-0.1l0,0l0,0
	h-0.1l0,0c-0.2,0.1-0.3,0.2-0.4,0.4c0,0,0,0,0,0.1l0,0v4.4c0,0.3,0.2,0.5,0.5,0.5l0,0c0.3,0,0.5-0.2,0.5-0.5v-2.9l2.6,3.3
	c0.1,0.1,0.1,0.1,0.2,0.2l0,0h0.1l0,0l0,0h0.1l0,0c0.2,0,0.4-0.3,0.4-0.5v-4.6C60.2,754.9,60,754.7,59.7,754.7z"/>
<path id="XMLID_9_" class="st9" d="M37.2,752.1c-2.2,0-4,1.9-4,4.3c0,2.4,1.8,4.3,4,4.3s3.9-2,3.9-4.3
	C41.1,754.1,39.3,752.1,37.2,752.1z M37.2,759.8c-1.8,0-3.2-1.5-3.2-3.4c0-1.9,1.4-3.5,3.2-3.5s3.2,1.5,3.2,3.5
	S38.9,759.8,37.2,759.8z"/>
<path id="XMLID_8_" class="st9" d="M45.3,756.5v-0.3c0-0.8-0.7-1.5-1.5-1.5h-0.1h-1.1l0,0c-0.3,0-0.5,0.2-0.5,0.5v4.4
	c0,0.3,0.2,0.5,0.5,0.5l0,0c0.3,0,0.5-0.2,0.5-0.5v-1.3l1.2,1.6c0.2,0.2,0.5,0.3,0.7,0.1l0,0c0.2-0.2,0.3-0.5,0.1-0.7l-1-1.4
	C44.8,757.9,45.3,757.3,45.3,756.5L45.3,756.5z M44.5,756.4c0,0.4-0.3,0.8-0.8,0.8h-0.6l0,0v-1.6h0.6
	C44.1,755.6,44.5,756,44.5,756.4L44.5,756.4z"/>
<circle id="svg_83" class="st1" cx="316.8" cy="757.9" r="26.5"/>
<path id="svg_100" class="st10" d="M319.8,768.8l-6.8,0.5c-0.6,0-1.1-0.4-1.2-1l0,0c0-0.6,0.4-1.1,1-1.2l6.8-0.5
	c0.6,0,1.1,0.4,1.2,1l0,0C320.9,768.3,320.4,768.8,319.8,768.8z"/>
<path id="svg_101" class="st10" d="M319.8,772.1l-6.8,0.5c-0.6,0-1.1-0.4-1.2-1l0,0c0-0.6,0.4-1.1,1-1.2l6.8-0.4
	c0.6,0,1.1,0.4,1.2,1l0,0C320.9,771.6,320.4,772.1,319.8,772.1L319.8,772.1z"/>
<g id="svg_102">
	<path id="svg_103" class="st11" d="M312.9,773.7h-0.1c0.2,1.9,1.8,3.4,3.6,3.4c2,0,3.6-1.7,3.6-3.8c0,0,0,0,0-0.1L312.9,773.7
		L312.9,773.7z"/>
</g>
<g id="svg_104">
	<path id="svg_105" class="st12" d="M327.1,750.8c0-5.9-4.8-10.8-10.8-10.8s-10.8,4.8-10.8,10.8c0,2.8,1,5.3,2.7,7.1
		c1.7,2.1,2.5,2.8,2.5,6.3v0.3c0,0.5,0.4,0.9,0.9,0.9h9.2c0.5,0,0.9-0.4,0.9-0.9v-0.2c0-3.7,0.9-4.3,2.8-6.7l0,0
		C326.2,755.8,327.1,753.4,327.1,750.8L327.1,750.8z"/>
	<path id="svg_106" class="st12" d="M324.7,757.7l0.1-0.2C324.8,757.5,324.7,757.6,324.7,757.7L324.7,757.7z"/>
</g>
<path id="svg_107" class="st13" d="M327.1,750.8c0-5.9-4.8-10.8-10.8-10.8v25.4h4.6c0.5,0,0.9-0.4,0.9-0.9v-0.2
	c0-3.7,0.9-4.3,2.8-6.7l0,0C326.2,755.8,327.1,753.4,327.1,750.8z"/>
<path id="svg_108" class="st14" d="M320.9,771.1v-0.4c0-0.5-0.5-0.9-1-0.9l-3.5,0.3v2.3l3.7-0.3
	C320.5,772.1,320.9,771.6,320.9,771.1L320.9,771.1z"/>
<path id="svg_109" class="st14" d="M320.9,767.8v-0.3c0-0.5-0.5-0.9-1-0.9l-3.5,0.3v2.2l3.7-0.3
	C320.5,768.8,320.9,768.3,320.9,767.8z"/>
<path id="svg_110" class="st15" d="M320,773.2l-3.6,0.3v3.6C318.4,777.1,320,775.4,320,773.2C320,773.3,320,773.3,320,773.2
	L320,773.2z"/>
<circle id="svg_111" class="st3" cx="316.4" cy="751" r="6.7"/>
<path id="svg_112" class="st4" d="M316.4,744.3v13.4c3.7,0,6.7-3,6.7-6.7C323,747.3,320.1,744.3,316.4,744.3z"/>
<path id="svg_113" class="st16" d="M321.5,755.3c1.3-1.6,1.8-3.6,1.5-5.5l-6.6,1.2l-4.3,5.1C314.9,758.5,319.1,758.1,321.5,755.3z"
	/>
<rect id="svg_114" x="274.3" y="555.5" class="st4" width="83.5" height="4.5"/>
<rect id="svg_121" x="273.3" y="555.5" class="st17" width="83.5" height="4.5"/>
<g id="svg_123">
	<polyline id="svg_124" class="st5" points="316,716.3 316.4,597.4 44.9,597.4 44.6,610.4 	"/>
	<g id="svg_125">
		<polygon id="svg_126" class="st6" points="321,714.8 316,723.5 311,714.8 		"/>
	</g>
</g>
<g id="svg_128">
	<polyline id="svg_129" class="st5" points="316,716.3 316,597.4 131.3,597.4 131.3,610.4 	"/>
	<g id="svg_130">
		<polygon id="svg_131" class="st6" points="321,714.8 316,723.5 311,714.8 		"/>
	</g>
</g>
<g id="svg_132">
	<g id="svg_133">
		<polyline id="svg_134" class="st5" points="-55.2,611.5 -55.2,597.4 216.3,597.4 216.3,610.4 		"/>
		<g id="svg_135">
			<polygon id="svg_136" class="st6" points="321,714.8 316,723.5 311,714.8 			"/>
			<g transform="matrix(1, 0, 0, 1, -371, -109.300003)">
				<polygon id="polygon-2" class="st6" points="321,716.8 316,725.5 311,716.8 				"/>
			</g>
		</g>
	</g>
</g>
<g>
	<circle id="svg_137" class="st1" cx="46.7" cy="642.4" r="26.5"/>
	<line id="svg_138" class="st0" x1="36.8" y1="624.7" x2="36.8" y2="625.2"/>
	<path id="svg_145" class="st18" d="M58.5,656.5c0,2.3-5.1,4.1-11.5,4.1s-11.5-1.8-11.5-4.1s5.1-4,11.5-4S58.5,654.3,58.5,656.5z"/>
	<path id="svg_147" class="st19" d="M47.9,657.2c-0.3,0.2-0.6,0.5-0.7,0.9c-0.1,0.1-0.1,0.3-0.1,0.5v0.3v0.3v0.5v1
		c1.6,0,0.2,0,2.1-0.1v-0.1v-0.2v-1.1v-0.3c0-0.2,0-0.2,0.1-0.5s0-0.4,0.2-0.6c0.1-0.1,0.1-0.1,0.1-0.2L47.9,657.2L47.9,657.2z"/>
	<path id="svg_148" class="st19" d="M53.1,656L53.1,656c-0.1-0.2-0.4-0.2-0.8-0.2c-1.2,0-2.2,0.6-2.5,1.4H50l-0.2,0.4h-0.1v0.1l0,0
		v0.6v0.4v1.7v0.1l1.9-0.2v-2c0-0.1,0-0.1,0-0.2c0-0.2,0.1-0.4,0.1-0.5c0.1-0.2,0.2-0.4,0.4-0.6c0.2-0.2,0.4-0.3,0.7-0.5
		C53,656.4,53.2,656.2,53.1,656z"/>
	<path id="svg_150" class="st19" d="M46.5,660.6L46.5,660.6c0.1,0,0.3,0,0.4,0s0.1,0,0.2,0l0,0c-0.1,0-0.1,0-0.2,0
		C46.7,660.6,46.6,660.6,46.5,660.6z"/>
	<path id="svg_153" class="st19" d="M43.7,660.5c0.2,0,0.4,0,0.6,0.1l0,0C44.1,660.5,43.9,660.5,43.7,660.5L43.7,660.5z"/>
	<path id="svg_154" class="st19" d="M46.5,659.1v-0.3v-0.3c0-0.2-0.1-0.3-0.1-0.5c-0.2-0.7-0.8-1.1-1.5-1.3v0.7h-1
		c0.2,0.1,0,0,0.3,0.3c0.2,0.2,0.1,0.3,0.2,0.6c0.1,0.3,0,0.3,0.1,0.5v0.3v1.4c0.7,0.1,1.4,0.1,2.1,0.1v-1L46.5,659.1
		C46.6,659.1,46.5,659.1,46.5,659.1z"/>
	<path id="svg_155" class="st19" d="M43.7,660.5L43.7,660.5v-1.8v-0.4v-0.6l0,0c0-0.2-0.1-0.3-0.1-0.5c-0.2-0.8-1.3-1.5-2.6-1.5
		c-0.4,0-0.7,0-0.8,0.2l0,0c-0.1,0.2,0.1,0.4,0.3,0.5c0.3,0.2,0.5,0.3,0.7,0.5s0.3,0.4,0.4,0.6c0,0.1,0.1,0.3,0.1,0.5
		c0,0.1,0,0.1,0,0.2v1.9"/>
	<path id="svg_156" class="st20" d="M60.4,640.3c2.5,0,4.8,0.3,6.9,0.7v-0.2c-2-0.4-4.2-0.7-6.6-0.7c-0.8,0-1.6,0-2.4,0.1
		c0.3-1.1,0.5-2.3,0.4-3.8c0-2.5-0.8-4.5-2.3-6c0.8-2.1-0.3-4.7-0.3-4.7s-2-0.2-5,1.9c-1.4-0.4-2.9-0.5-4.5-0.5
		c-1.7,0-3.3,0.2-4.9,0.7l0,0c-2.5-2-5.2-2-5.2-2s-1.2,3-0.2,5.1l0,0c-1.8,1.9-2.7,4.5-1.8,7.9c0.2,0.6,0.3,1.2,0.5,1.7
		c-0.7,0-1.4-0.1-2.1-0.1c-2.4,0-4.6,0.2-6.6,0.6v0.2c2-0.5,4.4-0.7,6.9-0.7c0.6,0,1.3,0,1.9,0.1c0.1,0.3,0.3,0.6,0.4,0.9
		c-0.8,0-1.7,0-2.6,0.1c-2.4,0.1-4.6,0.5-6.5,1v0.2c2-0.6,4.3-1,6.8-1.1c0.8,0,1.6-0.1,2.3-0.1c1.6,2.7,4.1,3.8,7.9,4.1
		c-0.9,0.5-1.5,1.4-1.6,2.4c-4.5,1.8-4.5-2.4-7-3.1c-0.2-0.1-0.3-0.1-0.5-0.1c-0.5-0.1-1,0-1.1,0.2l0,0v0.1c0,0.1,0,0.1,0.1,0.2
		c0.1,0.2,0.4,0.4,0.8,0.5c0.3,0.2,0.7,0.5,0.9,0.6c1.5,1.7,1.7,4.8,6.8,3.8v1.6v2.1c0,0.1,0,0.1,0,0.2c0,0.2-0.1,0.4-0.1,0.5
		c-0.1,0.2-0.2,0.4-0.4,0.6c-0.2,0.2-0.4,0.3-0.7,0.5c-0.2,0.1-0.4,0.3-0.3,0.5l0,0c0.1,0.2,0.3,0.2,0.8,0.2c1.3,0,2.3-0.6,2.6-1.5
		c0.1-0.1,0.1-0.3,0.1-0.5l0,0v-0.6v-0.4v-1.7v-2.1c0.1-0.8,0.5-1.4,0.6-1.3v1.3v3.5v2.1v0.3c0,0.2,0,0.2-0.1,0.5s0,0.4-0.2,0.6
		c-0.3,0.3,0,0.1-0.4,0.3c-0.2,0.1-0.2,0.3-0.2,0.5c0.1,0.2,0.2,0.3,0.7,0.3c1.1-0.2,1.9-0.6,2.2-1.5c0.1-0.1,0.1-0.3,0.1-0.5v-0.3
		v-0.3v-0.5v-1.6v-5c0-0.2,0.1-0.3,0.3-0.3c0.1,0,0.3,0.1,0.3,0.3v5v1.6v0.5v0.3v0.3c0,0.2,0,0.3,0.1,0.5c0.2,0.8,1.1,1.3,2.2,1.5
		c0.4,0.1,0.6-0.1,0.7-0.3c0-0.2,0-0.4-0.2-0.5c-0.4-0.2-0.1,0-0.4-0.3c-0.2-0.2-0.1-0.4-0.2-0.6c-0.1-0.3,0-0.3-0.1-0.5v-0.3v-2.1
		v-3.5v-1.3c0.1-0.1,0.5,0.4,0.6,1.3v2.1v1.7v0.4v0.6l0,0c0,0.2,0,0.3,0.1,0.5c0.2,0.8,1.3,1.5,2.6,1.5c0.4,0,0.7,0,0.8-0.2l0,0
		c0.1-0.2-0.1-0.4-0.3-0.5c-0.3-0.2-0.5-0.3-0.7-0.5s-0.3-0.4-0.4-0.6c0-0.1-0.1-0.3-0.1-0.5c0-0.1,0-0.1,0-0.2v-2.1v-3.4
		c0-1.1-0.7-2.3-1.7-2.8c3.7-0.2,6.5-1.3,7.9-4.1c0.8,0,1.6,0,2.5,0.1c2.5,0.1,4.8,0.5,6.8,1.1v-0.2c-1.9-0.5-4.1-0.9-6.5-1
		c-0.9-0.1-1.8-0.1-2.7-0.1c0.1-0.3,0.2-0.6,0.3-0.9C59,640.3,59.7,640.3,60.4,640.3L60.4,640.3z"/>
	<path id="svg_159" class="st21" d="M55.9,639.3c0-2.5-1.8-4.5-4.3-4.5l0,0c-2.7,0-3.1,0.2-4.9,0.2s-2.2-0.2-4.7-0.2
		c-0.1,0-0.2,0-0.4,0c-2.4,0-4.3,1.9-4.3,4.4c0,2,1.2,3.8,3,4.5l0,0c0,0.2,3.6,1.6,11.3,0.6c0.3,0,0.7-0.1,1.1-0.2l0,0l0,0
		C54.6,643.4,55.9,641.4,55.9,639.3z"/>
	<path id="svg_160" class="st22" d="M41.7,635.3c0.1,0,0.3,0,0.4,0c2.5,0,2.9,0.2,4.7,0.2c1.8,0,2.2-0.2,4.9-0.2l0,0
		c2.4,0,4.1,1.9,4.3,4.2c0-0.1,0-0.1,0-0.2c0-2.5-1.8-4.5-4.3-4.5l0,0c-2.7,0-3.1,0.2-4.9,0.2s-2.2-0.2-4.7-0.2c-0.1,0-0.2,0-0.4,0
		c-2.4,0-4.3,1.9-4.3,4.4c0,0.1,0,0.1,0,0.2C37.5,637.1,39.3,635.3,41.7,635.3z"/>
	<ellipse id="svg_161" class="st9" cx="41.7" cy="639.2" rx="1.9" ry="2.8"/>
	<ellipse id="svg_162" class="st23" cx="41.8" cy="639.2" rx="1.3" ry="1.8"/>
	<circle id="svg_163" class="st9" cx="41.3" cy="638.5" r="0.4"/>
	<ellipse id="svg_164" class="st9" cx="51.9" cy="639.2" rx="1.9" ry="2.8"/>
	<ellipse id="svg_165" class="st23" cx="51.7" cy="639.3" rx="1.3" ry="1.8"/>
	<circle id="svg_166" class="st9" cx="51.3" cy="638.5" r="0.3"/>
	<circle id="svg_167" class="st23" cx="46.6" cy="641.7" r="0.5"/>
	<path id="svg_168" class="st23" d="M47.6,642.7c-0.1,0-0.1,0.1-0.1,0.2c-0.1,0.3-0.4,0.5-0.8,0.5s-0.7-0.2-0.8-0.5
		c0-0.1-0.1-0.2-0.1-0.2s-0.1,0.1-0.1,0.2c0.1,0.4,0.5,0.8,1.1,0.8c0.5,0,1-0.3,1.1-0.8C47.7,642.8,47.6,642.7,47.6,642.7z"/>
	<path id="svg_169" class="st18" d="M34.1,647c0,0.2-0.2,0.3-0.3,0.3c-0.2,0-0.3-0.2-0.3-0.3s0.3-1.4,0.3-1.4S34.1,646.8,34.1,647z"
		/>
	<ellipse id="svg_170" class="st24" cx="35.1" cy="645.3" rx="0.2" ry="0.2"/>
	<ellipse id="svg_171" class="st24" cx="35.8" cy="645.8" rx="0.2" ry="0.2"/>
	
		<ellipse id="svg_172" transform="matrix(-0.9227 0.3856 -0.3856 -0.9227 319.353 1229.3678)" class="st24" cx="36.4" cy="646.7" rx="0.2" ry="0.3"/>
	
		<ellipse id="svg_173" transform="matrix(-0.7546 0.6562 -0.6562 -0.7546 490.2771 1111.8873)" class="st24" cx="37.2" cy="647.6" rx="0.2" ry="0.3"/>
	
		<ellipse id="svg_174" transform="matrix(-0.5 0.866 -0.866 -0.5 618.5095 939.5787)" class="st24" cx="38" cy="648.3" rx="0.2" ry="0.3"/>
	
		<ellipse id="svg_175" transform="matrix(-0.1325 0.9912 -0.9912 -0.1325 687.2831 695.9078)" class="st24" cx="39.1" cy="648.7" rx="0.2" ry="0.3"/>
	
		<ellipse id="svg_176" transform="matrix(-0.9977 6.731456e-02 -6.731456e-02 -0.9977 124.5632 1293.3997)" class="st24" cx="40.5" cy="648.8" rx="0.3" ry="0.2"/>
	<path id="svg_177" class="st24" d="M41.8,648.4c0,0.1,0,0.2-0.2,0.3c-0.2,0.1-0.3-0.1-0.3-0.2c0-0.1,0.1-0.2,0.3-0.3
		C41.8,648.2,41.8,648.3,41.8,648.4z"/>
	<path id="svg_178" d="M43.5,645.5c-0.4,0.2-0.7,0.5-0.9,0.8c0.3-0.1,8.3-1.8,9.1,1.9c-0.1-1.1-0.7-2.1-1.7-2.7
		C46.8,645.8,43.5,645.5,43.5,645.5z"/>
	<path id="svg_179" d="M41.9,647.9c0,1.2,0,2.2,0,2.2s-0.1,0-0.2,0C41.7,650.1,41.5,649.1,41.9,647.9z"/>
	<line id="svg_182" class="st0" x1="49.6" y1="657.5" x2="48.4" y2="657.1"/>
	<line id="svg_183" class="st0" x1="49.7" y1="660.5" x2="51" y2="660.5"/>
	<line id="svg_184" class="st0" x1="50.1" y1="660.5" x2="49.7" y2="660.5"/>
	<line id="svg_185" class="st0" x1="50.4" y1="660.4" x2="50.1" y2="660.5"/>
	<line id="svg_186" class="st0" x1="50.1" y1="660.5" x2="49.8" y2="660.5"/>
	<line id="svg_188" class="st0" x1="51.6" y1="660.3" x2="51.2" y2="660.3"/>
	<line id="svg_189" class="st0" x1="50.9" y1="660.4" x2="51.2" y2="660.3"/>
	<line id="svg_190" class="st0" x1="50.5" y1="660.4" x2="50.9" y2="660.4"/>
	<line id="svg_191" class="st0" x1="50.1" y1="660.5" x2="50.4" y2="660.4"/>
	<line id="svg_192" class="st0" x1="50.5" y1="660.4" x2="50.4" y2="660.4"/>
	<line id="svg_193" class="st0" x1="49.7" y1="660.5" x2="49.6" y2="660.5"/>
	<line id="svg_194" class="st0" x1="51.6" y1="660.3" x2="51.5" y2="660.3"/>
	<text id="repository" transform="matrix(1 0 0 1 8.4 683.95)" class="st25 st26">REPOSITORY</text>
	<text id="gitHub" transform="matrix(1 0 0 1 26.4 695.95)" class="st25 st26">GitHub</text>
</g>
<polygon id="svg_139" class="st27" points="217.8,642.9 213.6,635.6 217.8,628.4 226.1,628.4 230.3,635.6 226.1,642.9 "/>
<polygon id="svg_140" class="st28" points="217.8,658 213.6,650.8 217.8,643.5 226.1,643.5 230.3,650.8 226.1,658 "/>
<polygon id="svg_141" class="st29" points="204.7,650.4 200.5,643.1 204.7,635.8 213.1,635.8 217.2,643.1 213.1,650.4 "/>
<circle id="svg_142" class="st30" cx="217.6" cy="643.1" r="8.3"/>
<polygon id="svg_143" class="st30" points="213.3,635.8 213.3,650.4 225.9,643.1 "/>
<g id="svg_144">
	<g id="svg_146" class="st31">
	</g>
	<g id="svg_149" class="st31">
		<path id="svg_151" class="st19" d="M46.9,652.6"/>
		<path id="svg_152" class="st19" d="M46.9,652.6"/>
	</g>
	<path id="svg_157" class="st0" d="M45.9,642.7"/>
	<g id="svg_158">
	</g>
	<path id="svg_180" class="st18" d="M46.9,656.5"/>
	<path id="svg_181" class="st18" d="M46.9,648.5"/>
	<line id="svg_187" class="st0" x1="50.1" y1="660.5" x2="50.1" y2="660.5"/>
</g>
<text id="think" transform="matrix(1 0 0 1 -103.813 572.95)" class="st25 st26">THINK</text>
<text id="code" transform="matrix(1 0 0 1 6.2 572.95)" class="st25 st26">CODE</text>
<text id="deliver" transform="matrix(1 0 0 1 95.4 572.95)" class="st25 st26">DELIVER</text>
<text id="run" transform="matrix(1 0 0 1 184.4 572.95)" class="st25 st26">RUN</text>
<text id="learn" transform="matrix(1 0 0 1 273.4 572.95)" class="st25 st26">LEARN</text>
<text id="webIde" transform="matrix(1 0 0 1 24.4 801.95)" class="st25 st26">WEB IDE</text>
<text id="pipeline" transform="matrix(1 0 0 1 105.4 683.95)" class="st25 st26">JENKINS</text>
<text id="bluemix" transform="matrix(1 0 0 1 191.4 683.95)" class="st25 st26">BLUEMIX</text>
<text id="devops" transform="matrix(1 0 0 1 295.4 797.95)" class="st25 st26">DEVOPS</text>
<text id="insights" transform="matrix(1 0 0 1 292.4 808.95)" class="st25 st26">INSIGHTS</text>
<rect id="rect-1" x="-104" y="555.5" class="st32" width="103.5" height="4.5"/>
<g transform="matrix(1, 0, 0, 1, -112.190628, 0)">
	<circle id="circle-1" class="st1" cx="56.7" cy="642.4" r="26.5"/>
	<line id="line-1" class="st0" x1="46.8" y1="624.7" x2="46.8" y2="625.2"/>
	<path id="path-1" class="st18" d="M68.5,656.5c0,2.3-5.1,4.1-11.5,4.1s-11.5-1.8-11.5-4.1s5.1-4,11.5-4S68.5,654.3,68.5,656.5z"/>
	<path id="path-2" class="st19" d="M57.9,657.2c-0.3,0.2-0.6,0.5-0.7,0.9c-0.1,0.1-0.1,0.3-0.1,0.5v0.3v0.3v0.5v1
		c1.6,0,0.2,0,2.1-0.1v-0.1v-0.2v-1.1v-0.3c0-0.2,0-0.2,0.1-0.5s0-0.4,0.2-0.6c0.1-0.1,0.1-0.1,0.1-0.2L57.9,657.2L57.9,657.2z"/>
	<path id="path-3" class="st19" d="M63.1,656L63.1,656c-0.1-0.2-0.4-0.2-0.8-0.2c-1.2,0-2.2,0.6-2.5,1.4H60l-0.2,0.4h-0.1v0.1l0,0
		v0.6v0.4v1.7v0.1l1.9-0.2v-2c0-0.1,0-0.1,0-0.2c0-0.2,0.1-0.4,0.1-0.5c0.1-0.2,0.2-0.4,0.4-0.6c0.2-0.2,0.4-0.3,0.7-0.5
		C63,656.4,63.2,656.2,63.1,656z"/>
	<path id="path-4" class="st19" d="M56.5,660.6L56.5,660.6c0.1,0,0.3,0,0.4,0s0.1,0,0.2,0l0,0c-0.1,0-0.1,0-0.2,0
		C56.7,660.6,56.6,660.6,56.5,660.6z"/>
	<path id="path-5" class="st19" d="M53.7,660.5c0.2,0,0.4,0,0.6,0.1l0,0C54.1,660.5,53.9,660.5,53.7,660.5L53.7,660.5z"/>
	<path id="path-6" class="st19" d="M56.5,659.1v-0.3v-0.3c0-0.2-0.1-0.3-0.1-0.5c-0.2-0.7-0.8-1.1-1.5-1.3v0.7h-1
		c0.2,0.1,0,0,0.3,0.3c0.2,0.2,0.1,0.3,0.2,0.6c0.1,0.3,0,0.3,0.1,0.5v0.3v1.4c0.7,0.1,1.4,0.1,2.1,0.1v-1L56.5,659.1
		C56.6,659.1,56.5,659.1,56.5,659.1z"/>
	<path id="path-7" class="st19" d="M53.7,660.5L53.7,660.5v-1.8v-0.4v-0.6l0,0c0-0.2-0.1-0.3-0.1-0.5c-0.2-0.8-1.3-1.5-2.6-1.5
		c-0.4,0-0.7,0-0.8,0.2l0,0c-0.1,0.2,0.1,0.4,0.3,0.5c0.3,0.2,0.5,0.3,0.7,0.5s0.3,0.4,0.4,0.6c0,0.1,0.1,0.3,0.1,0.5
		c0,0.1,0,0.1,0,0.2v1.9"/>
	<path id="path-8" class="st20" d="M70.4,640.3c2.5,0,4.8,0.3,6.9,0.7v-0.2c-2-0.4-4.2-0.7-6.6-0.7c-0.8,0-1.6,0-2.4,0.1
		c0.3-1.1,0.5-2.3,0.4-3.8c0-2.5-0.8-4.5-2.3-6c0.8-2.1-0.3-4.7-0.3-4.7s-2-0.2-5,1.9c-1.4-0.4-2.9-0.5-4.5-0.5
		c-1.7,0-3.3,0.2-4.9,0.7l0,0c-2.5-2-5.2-2-5.2-2s-1.2,3-0.2,5.1l0,0c-1.8,1.9-2.7,4.5-1.8,7.9c0.2,0.6,0.3,1.2,0.5,1.7
		c-0.7,0-1.4-0.1-2.1-0.1c-2.4,0-4.6,0.2-6.6,0.6v0.2c2-0.5,4.4-0.7,6.9-0.7c0.6,0,1.3,0,1.9,0.1c0.1,0.3,0.3,0.6,0.4,0.9
		c-0.8,0-1.7,0-2.6,0.1c-2.4,0.1-4.6,0.5-6.5,1v0.2c2-0.6,4.3-1,6.8-1.1c0.8,0,1.6-0.1,2.3-0.1c1.6,2.7,4.1,3.8,7.9,4.1
		c-0.9,0.5-1.5,1.4-1.6,2.4c-4.5,1.8-4.5-2.4-7-3.1c-0.2-0.1-0.3-0.1-0.5-0.1c-0.5-0.1-1,0-1.1,0.2l0,0v0.1c0,0.1,0,0.1,0.1,0.2
		c0.1,0.2,0.4,0.4,0.8,0.5c0.3,0.2,0.7,0.5,0.9,0.6c1.5,1.7,1.7,4.8,6.8,3.8v1.6v2.1c0,0.1,0,0.1,0,0.2c0,0.2-0.1,0.4-0.1,0.5
		c-0.1,0.2-0.2,0.4-0.4,0.6c-0.2,0.2-0.4,0.3-0.7,0.5c-0.2,0.1-0.4,0.3-0.3,0.5l0,0c0.1,0.2,0.3,0.2,0.8,0.2c1.3,0,2.3-0.6,2.6-1.5
		c0.1-0.1,0.1-0.3,0.1-0.5l0,0v-0.6v-0.4v-1.7v-2.1c0.1-0.8,0.5-1.4,0.6-1.3v1.3v3.5v2.1v0.3c0,0.2,0,0.2-0.1,0.5s0,0.4-0.2,0.6
		c-0.3,0.3,0,0.1-0.4,0.3c-0.2,0.1-0.2,0.3-0.2,0.5c0.1,0.2,0.2,0.3,0.7,0.3c1.1-0.2,1.9-0.6,2.2-1.5c0.1-0.1,0.1-0.3,0.1-0.5v-0.3
		v-0.3v-0.5v-1.6v-5c0-0.2,0.1-0.3,0.3-0.3c0.1,0,0.3,0.1,0.3,0.3v5v1.6v0.5v0.3v0.3c0,0.2,0,0.3,0.1,0.5c0.2,0.8,1.1,1.3,2.2,1.5
		c0.4,0.1,0.6-0.1,0.7-0.3c0-0.2,0-0.4-0.2-0.5c-0.4-0.2-0.1,0-0.4-0.3c-0.2-0.2-0.1-0.4-0.2-0.6c-0.1-0.3,0-0.3-0.1-0.5v-0.3v-2.1
		v-3.5v-1.3c0.1-0.1,0.5,0.4,0.6,1.3v2.1v1.7v0.4v0.6l0,0c0,0.2,0,0.3,0.1,0.5c0.2,0.8,1.3,1.5,2.6,1.5c0.4,0,0.7,0,0.8-0.2l0,0
		c0.1-0.2-0.1-0.4-0.3-0.5c-0.3-0.2-0.5-0.3-0.7-0.5s-0.3-0.4-0.4-0.6c0-0.1-0.1-0.3-0.1-0.5c0-0.1,0-0.1,0-0.2v-2.1v-3.4
		c0-1.1-0.7-2.3-1.7-2.8c3.7-0.2,6.5-1.3,7.9-4.1c0.8,0,1.6,0,2.5,0.1c2.5,0.1,4.8,0.5,6.8,1.1v-0.2c-1.9-0.5-4.1-0.9-6.5-1
		c-0.9-0.1-1.8-0.1-2.7-0.1c0.1-0.3,0.2-0.6,0.3-0.9C69,640.3,69.7,640.3,70.4,640.3L70.4,640.3z"/>
	<path id="path-9" class="st21" d="M65.9,639.3c0-2.5-1.8-4.5-4.3-4.5l0,0c-2.7,0-3.1,0.2-4.9,0.2s-2.2-0.2-4.7-0.2
		c-0.1,0-0.2,0-0.4,0c-2.4,0-4.3,1.9-4.3,4.4c0,2,1.2,3.8,3,4.5l0,0c0,0.2,3.6,1.6,11.3,0.6c0.3,0,0.7-0.1,1.1-0.2l0,0l0,0
		C64.6,643.4,65.9,641.4,65.9,639.3z"/>
	<path id="path-10" class="st22" d="M51.7,635.3c0.1,0,0.3,0,0.4,0c2.5,0,2.9,0.2,4.7,0.2c1.8,0,2.2-0.2,4.9-0.2l0,0
		c2.4,0,4.1,1.9,4.3,4.2c0-0.1,0-0.1,0-0.2c0-2.5-1.8-4.5-4.3-4.5l0,0c-2.7,0-3.1,0.2-4.9,0.2s-2.2-0.2-4.7-0.2c-0.1,0-0.2,0-0.4,0
		c-2.4,0-4.3,1.9-4.3,4.4c0,0.1,0,0.1,0,0.2C47.5,637.1,49.3,635.3,51.7,635.3z"/>
	<ellipse id="ellipse-1" class="st9" cx="51.7" cy="639.2" rx="1.9" ry="2.8"/>
	<ellipse id="ellipse-2" class="st23" cx="51.8" cy="639.2" rx="1.3" ry="1.8"/>
	<circle id="circle-2" class="st9" cx="51.3" cy="638.5" r="0.4"/>
	<ellipse id="ellipse-3" class="st9" cx="61.9" cy="639.2" rx="1.9" ry="2.8"/>
	<ellipse id="ellipse-4" class="st23" cx="61.7" cy="639.3" rx="1.3" ry="1.8"/>
	<circle id="circle-3" class="st9" cx="61.3" cy="638.5" r="0.3"/>
	<circle id="circle-4" class="st23" cx="56.6" cy="641.7" r="0.5"/>
	<path id="path-11" class="st23" d="M57.6,642.7c-0.1,0-0.1,0.1-0.1,0.2c-0.1,0.3-0.4,0.5-0.8,0.5s-0.7-0.2-0.8-0.5
		c0-0.1-0.1-0.2-0.1-0.2s-0.1,0.1-0.1,0.2c0.1,0.4,0.5,0.8,1.1,0.8c0.5,0,1-0.3,1.1-0.8C57.7,642.8,57.6,642.7,57.6,642.7z"/>
	<path id="path-12" class="st18" d="M44.1,647c0,0.2-0.2,0.3-0.3,0.3c-0.2,0-0.3-0.2-0.3-0.3s0.3-1.4,0.3-1.4S44.1,646.8,44.1,647z"
		/>
	<ellipse id="ellipse-5" class="st24" cx="45.1" cy="645.3" rx="0.2" ry="0.2"/>
	<ellipse id="ellipse-6" class="st24" cx="45.8" cy="645.8" rx="0.2" ry="0.2"/>
	
		<ellipse id="ellipse-7" transform="matrix(-0.9227 0.3856 -0.3856 -0.9227 338.5828 1225.5142)" class="st24" cx="46.4" cy="646.7" rx="0.2" ry="0.3"/>
	
		<ellipse id="ellipse-8" transform="matrix(-0.7546 0.6562 -0.6562 -0.7546 507.8235 1105.3257)" class="st24" cx="47.2" cy="647.6" rx="0.2" ry="0.3"/>
	
		<ellipse id="ellipse-9" transform="matrix(-0.5 0.866 -0.866 -0.5 633.5103 930.9172)" class="st24" cx="48" cy="648.3" rx="0.2" ry="0.3"/>
	
		<ellipse id="ellipse-10" transform="matrix(-0.1325 0.9912 -0.9912 -0.1325 698.6098 685.9955)" class="st24" cx="49.1" cy="648.7" rx="0.2" ry="0.3"/>
	
		<ellipse id="ellipse-11" transform="matrix(-0.9977 6.731456e-02 -6.731456e-02 -0.9977 144.5415 1292.7278)" class="st24" cx="50.5" cy="648.8" rx="0.3" ry="0.2"/>
	<path id="path-13" class="st24" d="M51.8,648.4c0,0.1,0,0.2-0.2,0.3c-0.2,0.1-0.3-0.1-0.3-0.2c0-0.1,0.1-0.2,0.3-0.3
		C51.8,648.2,51.8,648.3,51.8,648.4z"/>
	<path id="path-14" d="M53.5,645.5c-0.4,0.2-0.7,0.5-0.9,0.8c0.3-0.1,8.3-1.8,9.1,1.9c-0.1-1.1-0.7-2.1-1.7-2.7
		C56.8,645.8,53.5,645.5,53.5,645.5z"/>
	<path id="path-15" d="M51.9,647.9c0,1.2,0,2.2,0,2.2s-0.1,0-0.2,0C51.7,650.1,51.5,649.1,51.9,647.9z"/>
	<line id="line-2" class="st0" x1="59.6" y1="657.5" x2="58.4" y2="657.1"/>
	<line id="line-3" class="st0" x1="59.7" y1="660.5" x2="61" y2="660.5"/>
	<line id="line-4" class="st0" x1="60.1" y1="660.5" x2="59.7" y2="660.5"/>
	<line id="line-5" class="st0" x1="60.4" y1="660.4" x2="60.1" y2="660.5"/>
	<line id="line-6" class="st0" x1="60.1" y1="660.5" x2="59.8" y2="660.5"/>
	<line id="line-7" class="st0" x1="61.6" y1="660.3" x2="61.2" y2="660.3"/>
	<line id="line-8" class="st0" x1="60.9" y1="660.4" x2="61.2" y2="660.3"/>
	<line id="line-9" class="st0" x1="60.5" y1="660.4" x2="60.9" y2="660.4"/>
	<line id="line-10" class="st0" x1="60.1" y1="660.5" x2="60.4" y2="660.4"/>
	<line id="line-11" class="st0" x1="60.5" y1="660.4" x2="60.4" y2="660.4"/>
	<line id="line-12" class="st0" x1="59.7" y1="660.5" x2="59.6" y2="660.5"/>
	<line id="line-13" class="st0" x1="61.6" y1="660.3" x2="61.5" y2="660.3"/>
	<text id="text-1" transform="matrix(1 0 0 1 8.4 683.95)" class="st25 st26">ISSUE TRACKER</text>
	<text id="text-2" transform="matrix(1 0 0 1 36.4 695.95)" class="st25 st26">GitHub</text>
</g>
<rect id="svg_121_1_" x="364" y="555.5" class="st17" width="83" height="4.5"/>
<text id="culture" transform="matrix(1 0 0 1 372.65 573.65)" class="st25 st26">CULTURE</text>
<g id="svg_142_1_">
	<ellipse id="svg_143_1_" class="st1" cx="399.9" cy="642" rx="27.1" ry="26.5"/>
	<g id="XMLID_4_">
		<g id="XMLID_6_">
			<path id="XMLID_21_" class="st33" d="M403.9,630.7c-0.4-1.2-1.6-1.8-2.9-1.4c-1.3,0.4-1.8,1.6-1.4,2.8l5.9,17.7
				c0.4,1.1,1.6,1.7,2.8,1.4c1.2-0.3,1.9-1.6,1.5-2.8C409.7,648.4,403.9,630.7,403.9,630.7z"/>
			<path id="XMLID_20_" class="st34" d="M394.7,633.6c-0.4-1.2-1.6-1.8-2.9-1.4c-1.2,0.4-1.8,1.6-1.4,2.8l5.9,17.7
				c0.4,1.1,1.6,1.7,2.8,1.4c1.2-0.3,1.9-1.6,1.5-2.8L394.7,633.6z"/>
			<path id="XMLID_19_" class="st35" d="M411.2,645.4c1.2-0.4,1.8-1.6,1.4-2.8c-0.4-1.2-1.6-1.8-2.9-1.4l-18.1,5.8
				c-1.1,0.4-1.7,1.6-1.4,2.7c0.3,1.2,1.6,1.9,2.9,1.5C393.1,651.1,411.2,645.4,411.2,645.4z"/>
			<path id="XMLID_18_" class="st36" d="M395.5,650.4c1.2-0.4,2.8-0.8,4.3-1.4c-0.4-1.2-0.8-2.7-1.4-4.2l-4.3,1.4L395.5,650.4z"/>
			<path id="XMLID_12_" class="st37" d="M404.6,647.5c1.6-0.5,3.2-1,4.3-1.4c-0.4-1.2-0.8-2.7-1.4-4.2l-4.3,1.4L404.6,647.5z"/>
			<path id="XMLID_11_" class="st38" d="M408.3,636.4c1.2-0.4,1.8-1.6,1.4-2.8c-0.4-1.2-1.6-1.8-2.9-1.4l-18.1,5.7
				c-1.1,0.4-1.7,1.6-1.4,2.7c0.3,1.2,1.6,1.9,2.9,1.5C390.2,642.2,408.3,636.4,408.3,636.4z"/>
			<path id="XMLID_10_" class="st39" d="M392.5,641.4c1.2-0.4,2.8-0.8,4.3-1.4c-0.5-1.6-1-3.1-1.4-4.2l-4.3,1.4L392.5,641.4z"/>
			<path id="XMLID_7_" class="st40" d="M401.6,638.5c1.6-0.5,3.2-1,4.3-1.4c-0.5-1.6-1-3.1-1.4-4.2l-4.3,1.4L401.6,638.5z"/>
		</g>
	</g>
</g>
<text id="slack" transform="matrix(1.0228 0 0 1 381.9434 683.6006)" class="st25 st26">SLACK</text>
<g id="svg_198_1_">
	<polygon id="svg_199_1_" class="st6" points="405.2,605.8 400.4,614.5 395.6,605.8 	"/>
</g>
<line id="svg_18_1_" class="st5" x1="400.7" y1="611" x2="400.7" y2="596.8"/>
<line id="svg_298" class="st5" x1="401.4" y1="597.5" x2="316.4" y2="597.5"/>
<g>
	<path class="st41" d="M128.4,642.8c0-0.4,0-0.8-0.1-1.2l2.4-2.2l-2.1-3.4l-2.9,1c-0.7-0.6-1.5-1.1-2.4-1.4l-0.6-2.8h-4l-0.7,2.8
		c-0.9,0.3-1.7,0.8-2.4,1.4l-2.8-1l-2.1,3.4l2.4,2.2c-0.1,0.3-0.1,0.7-0.1,1.2c0,0.4,0,0.8,0.1,1.2l-2.4,2.2l2.1,3.4l2.9-1
		c0.7,0.6,1.5,1.1,2.4,1.4l0.6,2.8h4l0.7-2.8c0.9-0.3,1.7-0.8,2.4-1.4l2.9,0.9l2-3.3l-2.4-2.2C128.4,643.6,128.4,643.2,128.4,642.8
		L128.4,642.8L128.4,642.8z M120.8,645.2c-1.4,0-2.5-1.1-2.5-2.5s1.1-2.5,2.5-2.5s2.5,1.1,2.5,2.5
		C123.3,644.2,122.2,645.2,120.8,645.2L120.8,645.2L120.8,645.2z"/>
	<path class="st42" d="M142.8,636.3c0.2-0.3,0.3-0.5,0.4-0.8l2.5-0.4V632l-2.3-0.5c-0.2-0.7-0.5-1.3-1-1.9l0.8-2.1l-2.6-1.6
		l-1.6,1.6c-0.7-0.2-1.4-0.1-2.2-0.1l-1.4-1.8l-2.8,1.4l0.7,2.4c-0.2,0.2-0.4,0.5-0.5,0.7c-0.2,0.3-0.3,0.5-0.4,0.8l-2.5,0.4v3.1
		l2.3,0.5c0.2,0.7,0.5,1.3,1,1.9l-0.8,2.1l2.6,1.6l1.6-1.6c0.7,0.2,1.4,0.1,2.2,0.1l1.5,1.8l2.7-1.4l-0.7-2.4
		C142.4,636.8,142.6,636.6,142.8,636.3L142.8,636.3L142.8,636.3z M136.7,634.8c-0.9-0.6-1.2-1.7-0.6-2.7c0.6-0.9,1.7-1.2,2.7-0.6
		c0.9,0.6,1.2,1.7,0.6,2.7C138.8,635.1,137.6,635.4,136.7,634.8L136.7,634.8L136.7,634.8z"/>
	<path class="st43" d="M142.8,655.8c0.2-0.3,0.3-0.5,0.4-0.8l2.5-0.4v-3.1l-2.3-0.5c-0.2-0.7-0.5-1.3-1-1.9l0.8-2.1l-2.6-1.6
		L139,647c-0.7-0.2-1.4-0.1-2.2-0.1l-1.4-1.8l-2.8,1.4l0.7,2.4c-0.2,0.2-0.4,0.5-0.5,0.7c-0.2,0.3-0.3,0.5-0.4,0.8l-2.5,0.4v3.1
		l2.3,0.5c0.2,0.7,0.5,1.3,1,1.9l-0.8,2.1l2.6,1.6l1.6-1.6c0.7,0.2,1.4,0.1,2.2,0.1l1.5,1.8l2.7-1.4l-0.7-2.4
		C142.4,656.4,142.6,656.1,142.8,655.8L142.8,655.8L142.8,655.8z M136.7,654.3c-0.9-0.6-1.2-1.7-0.6-2.7c0.6-0.9,1.7-1.2,2.7-0.6
		c1,0.6,1.2,1.7,0.6,2.7S137.6,654.9,136.7,654.3L136.7,654.3L136.7,654.3z"/>
</g>
</svg>
